<svg xmlns="http://www.w3.org/2000/svg" fill="none" viewBox="0 0 28 28" height="28" width="28">
<path fill="#191C00" d="M12.1936 0.879883L5.90821 7.16528L21.4646 22.7216L22.7216 21.4645L15.5418 14.2847L16.7989 13.0276L23.9787 20.2075L25.2358 18.9504L18.0559 11.7705L19.313 10.5135L26.4929 17.6933L27.75 16.4362L12.1936 0.879883ZM12.7617 2.70506C12.9204 2.86375 13.0064 3.08216 13.0007 3.31224C12.995 3.54232 12.8982 3.76523 12.7315 3.93192C12.5648 4.09862 12.3419 4.19546 12.1118 4.20112C11.8817 4.20679 11.6633 4.12083 11.5046 3.96214C11.3459 3.80346 11.26 3.58505 11.2656 3.35497C11.2713 3.12489 11.3681 2.90198 11.5348 2.73528C11.7015 2.56858 11.9245 2.47175 12.1545 2.46608C12.3846 2.46042 12.603 2.54638 12.7617 2.70506ZM15.155 5.09835C15.3137 5.25703 15.3996 5.47544 15.394 5.70552C15.3883 5.9356 15.2915 6.15851 15.1248 6.32521C14.9581 6.49191 14.7352 6.58874 14.5051 6.59441C14.275 6.60008 14.0566 6.51411 13.8979 6.35543C13.7392 6.19674 13.6533 5.97834 13.6589 5.74826C13.6646 5.51817 13.7614 5.29527 13.9281 5.12857C14.0948 4.96187 14.3177 4.86503 14.5478 4.85937C14.7779 4.8537 14.9963 4.93966 15.155 5.09835ZM17.5483 7.49163C17.707 7.65032 17.7929 7.86872 17.7873 8.09881C17.7816 8.32889 17.6848 8.5518 17.5181 8.71849C17.3514 8.88519 17.1284 8.98203 16.8984 8.98769C16.6683 8.99336 16.4499 8.9074 16.2912 8.74871C16.1325 8.59003 16.0465 8.37162 16.0522 8.14154C16.0579 7.91146 16.1547 7.68855 16.3214 7.52185C16.4881 7.35515 16.711 7.25832 16.9411 7.25265C17.1712 7.24698 17.3896 7.33295 17.5483 7.49163ZM12.0727 5.78732C12.2314 5.94601 12.3174 6.16442 12.3117 6.3945C12.306 6.62458 12.2092 6.84749 12.0425 7.01419C11.8758 7.18088 11.6529 7.27772 11.4228 7.28339C11.1927 7.28905 10.9743 7.20309 10.8157 7.0444C10.657 6.88572 10.571 6.66731 10.5767 6.43723C10.5823 6.20715 10.6792 5.98424 10.8459 5.81754C11.0126 5.65084 11.2355 5.55401 11.4656 5.54834C11.6956 5.54268 11.914 5.62864 12.0727 5.78732ZM14.466 8.18061C14.6247 8.33929 14.7107 8.5577 14.705 8.78778C14.6993 9.01786 14.6025 9.24077 14.4358 9.40747C14.2691 9.57417 14.0462 9.671 13.8161 9.67667C13.586 9.68234 13.3676 9.59637 13.2089 9.43769C13.0503 9.279 12.9643 9.0606 12.97 8.83052C12.9756 8.60044 13.0725 8.37753 13.2392 8.21083C13.4059 8.04413 13.6288 7.94729 13.8588 7.94163C14.0889 7.93596 14.3073 8.02192 14.466 8.18061ZM16.8593 10.5739C17.018 10.7326 17.1039 10.951 17.0983 11.1811C17.0926 11.4111 16.9958 11.6341 16.8291 11.8008C16.6624 11.9675 16.4395 12.0643 16.2094 12.07C15.9793 12.0756 15.7609 11.9897 15.6022 11.831C15.4435 11.6723 15.3576 11.4539 15.3632 11.2238C15.3689 10.9937 15.4657 10.7708 15.6324 10.6041C15.7991 10.4374 16.022 10.3406 16.2521 10.3349C16.4822 10.3292 16.7006 10.4152 16.8593 10.5739ZM8.99047 6.4763C9.14915 6.63499 9.23512 6.85339 9.22945 7.08347C9.22378 7.31355 9.12695 7.53646 8.96025 7.70316C8.79355 7.86986 8.57064 7.96669 8.34056 7.97236C8.11048 7.97803 7.89208 7.89206 7.73339 7.73338C7.57471 7.57469 7.48874 7.35629 7.49441 7.12621C7.50008 6.89613 7.59691 6.67322 7.76361 6.50652C7.93031 6.33982 8.15322 6.24299 8.3833 6.23732C8.61338 6.23165 8.83179 6.31762 8.99047 6.4763ZM11.3838 8.86959C11.5424 9.02827 11.6284 9.24668 11.6227 9.47676C11.6171 9.70684 11.5202 9.92975 11.3535 10.0964C11.1868 10.2631 10.9639 10.36 10.7338 10.3656C10.5038 10.3713 10.2854 10.2853 10.1267 10.1267C9.96799 9.96798 9.88203 9.74957 9.88769 9.51949C9.89336 9.28941 9.9902 9.0665 10.1569 8.8998C10.3236 8.7331 10.5465 8.63627 10.7766 8.6306C11.0067 8.62494 11.2251 8.7109 11.3838 8.86959ZM13.777 11.2629C13.9357 11.4216 14.0217 11.64 14.016 11.87C14.0104 12.1001 13.9135 12.323 13.7468 12.4897C13.5801 12.6564 13.3572 12.7533 13.1271 12.7589C12.8971 12.7646 12.6786 12.6786 12.52 12.5199C12.3613 12.3613 12.2753 12.1429 12.281 11.9128C12.2866 11.6827 12.3835 11.4598 12.5502 11.2931C12.7169 11.1264 12.9398 11.0296 13.1699 11.0239C13.3999 11.0182 13.6184 11.1042 13.777 11.2629ZM4.65113 8.42236L3.39405 9.67943L18.9504 25.2358L20.2075 23.9787L4.65113 8.42236ZM2.13697 10.9365L0.879895 12.1936L16.4362 27.7499L17.6933 26.4929L2.13697 10.9365Z"></path>
</svg>
