<svg width="257" height="10" viewBox="0 0 257 10" fill="none" xmlns="http://www.w3.org/2000/svg">
  <path fill-rule="evenodd" clip-rule="evenodd" d="M50.4956 9.95996C53.7789 9.60821 58.4237 10.1451 60.9543 9.95996C61.4188 9.9291 61.3467 9.75631 62.1155 9.70077C64.6622 9.52799 67.4891 9.87356 70.0757 9.58353C70.0117 9.49713 69.9476 9.40457 69.8836 9.31817C69.4271 9.23795 68.6182 9.23178 68.6182 9.04665C70.0117 9.04665 70.1799 8.94792 71.7335 8.90472C72.1739 9.14539 71.317 9.29966 72.3501 9.38605C73.0068 9.3984 72.4142 9.00963 73.6154 9.28732C74.3361 9.12687 72.6384 9.19475 72.8466 8.96643C74.7045 8.93557 75.5053 8.50978 77.5795 8.46041C81.023 8.38019 87.2374 8.88621 90.689 8.78747C92.2106 8.74427 91.9143 8.80598 93.1475 8.85535C93.9003 8.88621 94.4849 8.81833 95.2617 8.81215C100.98 8.75661 109.052 8.89855 115.947 8.86152C120.416 8.83684 124.788 8.65788 127.983 8.81833C127.415 8.85535 126.55 8.84301 126.478 8.96643C127.239 8.89855 127.463 8.99728 128.632 8.97877C130.826 8.52212 136.881 8.67022 141.782 8.62085C146.002 8.57766 150.022 8.67022 153.898 8.68256C155.644 8.68256 158.383 8.69491 159.744 8.60851C160.345 8.57149 160.553 8.42955 161.202 8.40487C162.883 8.34316 165.03 8.45424 166.856 8.42955C168.521 8.41104 169.971 8.25677 171.276 8.23825C172.421 8.22591 174.864 8.46041 175.2 8.09632C171.901 8.2506 169.626 8.03461 165.967 7.94205C157.021 7.72606 146.995 8.3987 137.738 7.85565C138.314 7.64584 140.436 7.94205 140.204 7.55327C138.13 7.63967 134.102 7.38049 131.859 7.51008C132.084 7.84331 131.427 8.11483 129.209 7.91736C128.768 7.67052 130.77 7.85565 130.33 7.60881C129.137 7.4422 126.005 7.71372 126.061 7.26941C126.758 7.23855 127.727 7.25707 128.136 7.17685C127.311 7.12748 128.392 7.04725 127.943 6.91149C126.982 6.89915 126.35 6.81893 125.669 6.73871C127.046 6.62763 128.392 6.81893 129.473 6.81276C129.649 6.93618 128.736 6.8683 128.784 6.96703C131.035 6.92384 135.872 6.97937 137.457 7.13365C136.801 7.0164 140.02 6.95469 140.436 7.13365C139.964 7.14599 139.051 7.07194 139.435 7.23238C140.685 7.55327 141.237 7.09662 142.278 7.09045C143.255 7.23855 144.152 7.07811 144.625 6.99789C144.096 6.9732 143.455 6.9732 143.431 6.83127C145.81 6.83127 147.067 6.91149 149.085 6.86213C147.932 6.59677 149.95 6.46101 151.047 6.60912C151.255 6.73871 150.639 6.72019 150.975 6.87447C153.914 7.04108 158.783 7.11514 160.241 6.70785C159.72 6.68317 158.671 6.76956 158.823 6.59677C159.112 6.37462 161.354 6.54123 161.818 6.66465C162.795 6.53506 164.677 6.51038 165.742 6.52272C165.822 6.36228 165.166 6.36228 165.246 6.20183C166.647 6.01053 168.802 6.31908 170.131 6.27588C173.038 6.18949 175.745 5.96733 178.708 5.89328C179.565 5.99819 179.124 6.1648 179.509 6.26971C180.333 6.23269 181.471 6.24503 182.127 6.17715C182.36 5.94265 181.222 6.01053 181.318 5.80072C182.039 5.75752 182.56 5.6773 183.353 5.65261C183.216 5.4428 182.071 5.08488 184.049 5.12808C183.657 5.3996 184.53 5.38109 185.162 5.55388C186.62 5.38726 188.166 5.52302 189.543 5.68347C188.95 5.67113 188.718 5.72049 188.854 5.83774C189.559 5.98585 191.841 5.7822 192.194 6.01053C192.25 6.208 190.312 6.04756 190.504 6.26354C192.466 6.42399 191.193 6.71402 191.809 6.96086C193.507 6.60294 197.239 6.43633 197.856 6.04139C198.736 6.05373 199.681 6.17098 199.665 5.94265C198.416 5.90562 198.056 6.02904 196.742 5.97968C196.23 6.08458 197.103 6.15246 196.662 6.24503C195.926 6.26971 195.317 6.31908 194.588 6.34376C194.949 6.07841 194.196 6.12161 193.283 6.0167C193.595 5.89328 194.38 5.96733 194.548 5.91797C194.14 5.90562 194.212 5.78838 194.124 5.70198C195.149 5.66496 195.966 5.59708 196.046 5.39343C196.406 5.39343 196.766 5.39343 197.119 5.39343C196.975 5.66496 199.473 5.81306 199.697 5.61559C199.161 5.61559 198.624 5.61559 198.088 5.60942C197.807 5.44897 197.319 5.33172 196.975 5.18362C195.581 5.16511 193.835 5.22682 193.595 4.95529C195.541 5.02317 195.757 4.78251 197.519 4.81336C197.255 4.87507 197.351 4.99849 197.479 5.12808C198.136 5.22682 199.249 5.22065 199.321 5.45514C199.954 5.45514 200.578 5.45514 201.203 5.46748C199.794 5.70815 202.124 5.80072 200.819 6.04756C202.348 6.09692 203.766 6.16481 204.086 6.4857C205.255 6.52272 205.84 6.45484 206.737 6.4425C206.657 6.62763 207.289 6.64614 207.273 6.81276C206.112 6.84361 205.007 7.09662 203.814 6.84978C202.148 7.22004 204.11 7.61498 206.921 7.44837C207.121 7.52859 207.417 7.58413 207.61 7.66435C205.399 7.67052 204.11 7.56562 202.228 7.63967C201.659 7.54093 202.436 7.48539 201.764 7.37432C199.761 7.40517 198.272 7.38666 196.686 7.399C196.43 7.5471 198.208 7.54093 197.375 7.61498C195.069 7.49774 195.421 7.85565 194.1 7.91736C193.299 7.91736 192.466 7.91736 192.37 7.75075C189.791 8.10249 184.69 8.00376 180.95 7.90502C179.885 8.121 177.619 7.91736 175.448 8.09015C182.063 8.76896 189.919 8.21974 197.327 8.30613C208.362 8.42955 219.254 7.94205 228.936 8.2506C228.199 8.6332 224.427 8.42955 221.392 8.58383C220.783 8.4419 221.216 8.40487 220.431 8.36784C220.919 8.47275 219.598 8.60851 220.126 8.68256C224.403 8.44807 231.827 9.03431 235.126 8.65171C234.517 8.36167 234.493 8.18888 234.085 7.96056C230.121 8.78747 225.188 6.8251 230.433 6.62146C230.481 6.39313 229.032 6.28822 229.552 6.14012C230.978 6.4857 233.34 5.94265 235.318 6.32525C235.687 6.00436 237.464 6.25737 238.586 6.39313C238.618 6.31908 238.898 6.2944 238.698 6.18332C238.449 6.05373 236.976 6.20183 236.968 6.0167C237.528 5.6341 241.773 5.92414 241.428 6.2512C242.421 6.27588 243.174 6.2512 243.815 6.208C244.76 6.3993 243.302 6.58443 243.887 6.68317C244.736 6.72636 244.744 6.38079 246.698 6.4857C246.41 6.83127 248.844 6.6338 249.004 6.70785C249.204 6.78807 248.884 6.97937 249.469 6.9732C249.677 6.81893 249.028 6.60912 249.004 6.33759C248.235 6.36845 247.947 6.49187 246.658 6.43016C246.938 6.31291 245.817 6.22651 246.506 6.22034C247.987 6.45484 250.502 5.71432 249.164 5.4428C249.797 5.41812 250.518 5.40578 250.358 5.23916C249.757 5.2515 249.333 5.22065 249.204 5.12808C249.717 4.87507 249.677 4.75165 249.204 4.38756C247.21 4.38756 246.938 3.99262 246.281 3.68407C247.859 3.43723 249.629 3.85686 251.471 3.81366C250.99 3.8692 251.271 4.05433 250.894 4.12838C250.045 4.1469 248.516 4.04816 248.548 4.22095C249.437 4.40608 250.734 4.10987 251.543 4.28883C250.574 4.39373 251.239 4.78868 250.39 4.91827C251.07 5.02935 251.847 4.8689 253.08 4.93061C253.225 4.73314 252.095 4.81953 251.847 4.71463C252.952 4.3382 255.251 4.45544 256.5 4.1037C255.923 3.94942 255.603 4.22095 254.658 4.1469C254.298 3.96794 253.385 3.9124 252.656 3.98028C252.192 3.73961 251.335 3.7643 251.511 3.49894C251.014 3.46809 249.973 3.55448 249.853 3.43723C250.374 3.25828 250.133 3.26445 249.357 3.11634C249.533 3.02378 250.286 3.03612 250.278 2.9127C249.909 2.83248 249.116 2.84482 249.044 2.69672C249.437 2.75226 250.077 2.75226 250.47 2.80779C249.941 2.50542 251.03 2.72757 251.207 2.70289C251.463 2.66586 252.023 2.34497 252.856 2.39434C250.83 2.15367 249.253 2.40051 247.09 2.20921C246.161 2.12282 245.328 1.84512 244.095 1.77107C240.107 1.52423 232.892 1.61062 228.367 1.53657C226.926 1.51189 224.988 1.6168 224.099 1.56743C223.514 1.53657 223.794 1.41932 223.178 1.40698C218.797 1.2959 214.489 1.47486 211.261 0.870108C204.727 0.796056 201.307 0.357917 195.885 0C195.877 0.215984 195.341 0.339404 195.501 0.580072C195.669 0.728175 196.59 0.703491 196.999 0.796056C195.781 1.38847 192.794 0.728175 189.503 0.814569C191.073 1.54892 186.724 1.68468 184.153 1.57977C183.721 1.3823 185.098 1.49955 184.77 1.32059C183.961 1.25271 183.064 1.24654 182.352 1.30825C181.711 1.37613 183.176 1.59211 182.584 1.62914C179.765 1.70319 175.424 1.94386 173.126 1.5304C175.889 1.3823 178.796 1.36379 181.935 1.46869C181.895 1.29591 181.743 1.14163 181.126 1.09226C178.9 1.28356 175.689 1.1478 173.286 1.36996C172.934 1.30825 172.846 1.17866 172.79 1.04907C172.141 1.1046 171.388 0.88245 171.172 1.04289C171.997 1.02438 172.405 1.09226 172.397 1.25888C171.116 1.32059 171.26 1.06141 170.363 1.03672C169.698 1.1046 170.283 1.31442 170.059 1.35144C169.674 1.28356 168.641 1.49955 167.44 1.44401C167.424 1.5736 168.017 1.56126 167.905 1.70936C167.28 1.74022 166.735 1.77724 165.79 1.75256C165.486 1.58594 165.67 1.53657 165.334 1.48721C164.942 1.64765 164.365 1.77724 162.835 1.74022C163.204 1.63531 162.763 1.67233 162.683 1.5304C158.575 1.14163 156.173 2.3388 151.84 1.74022C152.232 1.64148 154.082 1.79575 153.874 1.59211C153.209 1.55509 151.968 1.64765 151.68 1.5304C152.072 1.41932 152.176 1.37613 151.72 1.21568C150.695 1.17866 149.622 1.15397 149.374 0.937988C148.629 1.08609 146.346 0.956501 146.37 1.24037C147.756 1.19717 148.196 1.36379 148.949 1.46252C146.555 1.73404 142.414 1.46252 140.492 1.62914C140.324 1.50572 139.483 1.52423 139.491 1.35761C140.028 1.26505 140.877 1.2342 141.181 1.09843C140.3 1.19717 139.627 1.09226 138.49 1.08609C139.379 1.38847 136.857 1.32059 137.369 1.39464C138.034 1.39464 138.506 1.4255 138.795 1.50572C138.482 1.70936 136.648 1.77724 135.872 1.54274C136.128 1.46252 136.945 1.48721 136.793 1.33293C134.518 1.17866 134.31 1.56743 132.989 1.62914C129.761 1.78958 125.565 1.12312 122.418 1.46869C122.129 1.58594 123.251 1.67233 122.57 1.67851C120.4 1.65382 118.029 1.74022 115.651 1.75256C111.006 1.7649 106.505 1.88215 105.232 1.43784C105.016 1.28973 106.201 1.39464 106.193 1.28356C104.247 1.25271 100.235 1.24037 100.651 1.78341C101.708 1.95003 103.118 1.66616 103.686 1.90683C103.102 1.98088 102.749 1.98088 103.334 2.17218C97.2958 2.47456 89.68 2.06728 84.6428 2.28943C84.0101 2.24624 83.7218 2.12899 83.3775 2.01791C78.6125 2.06728 75.6975 1.51189 71.8856 1.69702C72.286 1.98088 70.9887 1.96854 69.6513 1.95003C69.5632 1.88215 70.6283 1.79575 69.7714 1.74022C69.7394 1.85746 68.4581 1.75256 67.9215 1.78341C68.1137 2.03025 67.2969 2.1043 66.9205 2.25241C64.0295 1.86363 61.0344 2.22155 57.3827 2.04876C56.2455 1.59828 54.0432 1.74022 52.6177 1.75873C51.0561 1.77724 49.2623 1.62914 47.4604 1.67851C46.2111 1.70936 45.2181 1.90066 43.8807 1.92534C41.3742 1.96854 38.6273 1.78958 37.2659 2.04876C35.6643 1.83278 34.5191 1.99323 33.2298 2.03025C29.6981 2.12282 25.5979 2.00557 21.9621 2.03025C17.013 2.06111 12.5204 2.16601 7.73146 2.01174C5.43309 1.93769 3.19878 1.59828 0.852363 1.7649C0.604107 2.07345 1.09261 2.51776 0.5 2.7646C1.94149 2.78928 1.00452 2.94356 0.996512 3.08549C2.54211 3.13486 4.22384 3.47426 4.34396 3.62853C3.35094 3.49277 1.80535 3.47426 0.764273 3.50511C0.572074 3.83218 2.16572 3.7643 2.68625 3.93708C2.36592 4.09136 1.23676 3.84452 1.10863 3.98028C3.43102 4.56035 5.61728 5.46131 8.17191 5.9735C9.16494 6.17098 10.8547 6.22651 12.2481 6.41782C15.1952 6.81893 18.6948 7.42985 23.1233 7.36815C24.1484 7.73223 27.608 7.81863 29.578 7.76926C29.4819 8.32465 32.6772 8.14569 34.2708 8.31848C35.4721 8.88621 40.1008 9.19475 42.2631 8.99111C44.9378 9.31817 47.1721 9.7378 50.4475 9.9291L50.4956 9.95996Z" fill="#FD3535"/>
</svg>