<svg width="25" height="24" viewBox="0 0 25 24" fill="none" xmlns="http://www.w3.org/2000/svg">
  <path fill-rule="evenodd" clip-rule="evenodd" d="M12.5005 21C14.1264 21.0001 15.7219 20.5598 17.1176 19.7259C18.5133 18.8919 19.657 17.6955 20.4273 16.2636C21.1975 14.8318 21.5655 13.218 21.4921 11.5938C21.4187 9.96956 20.9067 8.39556 20.0105 7.039L12.8555 14.989C12.5213 15.3604 12.0602 15.5933 11.5629 15.6418C11.0656 15.6903 10.5682 15.5509 10.1685 15.251L6.90049 12.8C6.68832 12.6409 6.54805 12.404 6.51054 12.1414C6.47304 11.8789 6.54136 11.6122 6.70049 11.4C6.85962 11.1878 7.09652 11.0476 7.35907 11.0101C7.62162 10.9725 7.88832 11.0409 8.10049 11.2L11.3685 13.651L18.7145 5.49C17.6503 4.47411 16.3533 3.7346 14.937 3.33622C13.5207 2.93784 12.0284 2.89274 10.5906 3.20487C9.15287 3.517 7.81356 4.17684 6.68996 5.12661C5.56636 6.07639 4.69273 7.28713 4.14557 8.65284C3.59841 10.0185 3.39439 11.4976 3.55139 12.9604C3.70839 14.4233 4.22162 15.8253 5.04613 17.0438C5.87065 18.2623 6.98131 19.2601 8.28087 19.9498C9.58042 20.6395 11.0293 21.0001 12.5005 21Z" fill="#BEFA23"/>
</svg>