<svg width="40" height="40" viewBox="0 0 40 40" fill="none" xmlns="http://www.w3.org/2000/svg">
<path d="M16.1243 34.988C17.2288 34.988 18.1243 34.0926 18.1243 32.988C18.1243 31.8835 17.2288 30.988 16.1243 30.988C15.0197 30.988 14.1243 31.8835 14.1243 32.988C14.1243 34.0926 15.0197 34.988 16.1243 34.988Z" stroke="#BEFA23" stroke-width="2.0002" stroke-linecap="round"/>
<path d="M30.1243 34.8918C31.2288 34.8918 32.1243 33.9964 32.1243 32.8918C32.1243 31.7873 31.2288 30.8918 30.1243 30.8918C29.0197 30.8918 28.1243 31.7873 28.1243 32.8918C28.1243 33.9964 29.0197 34.8918 30.1243 34.8918Z" stroke="#BEFA23" stroke-width="2.0002" stroke-linecap="round"/>
<path d="M4.04126 5.01208H8.18941L15.457 27.0121H32.0413" stroke="#BEFA23" stroke-width="2.0002"/>
<path d="M9.95825 10.0361L13.8421 22.0361H32.211L35.9583 10.0361H9.95825Z" stroke="#BEFA23" stroke-width="2.0002" stroke-linecap="round"/>
</svg>
