<svg width="126" height="99" viewBox="0 0 126 99" fill="none" xmlns="http://www.w3.org/2000/svg">
  <g clip-path="url(#clip0_1074_2187)">
    <path d="M29.4414 35.9429C29.5803 35.6056 29.6629 35.2816 29.6894 34.9674C29.7158 34.6566 29.6828 34.3656 29.5902 34.1011C29.4976 33.8366 29.3389 33.5952 29.1108 33.3736C28.8827 33.1554 28.5885 32.9702 28.2249 32.8214C27.9604 32.7123 27.6861 32.6396 27.4051 32.6032C27.1241 32.5668 26.853 32.5834 26.5918 32.6528C26.3307 32.7255 26.0894 32.8578 25.8679 33.0562C25.6431 33.2546 25.458 33.5357 25.3092 33.8994L24.291 36.3959L31.372 39.2826L31.9538 37.8541L29.1274 36.7034L29.4381 35.9396L29.4414 35.9429ZM28.334 35.6453L28.0761 36.2802L25.9241 35.4039L26.1654 34.8087C26.3108 34.4516 26.5092 34.2334 26.7571 34.1573C27.0018 34.0813 27.3059 34.1143 27.6629 34.2598C28.0266 34.4086 28.258 34.6037 28.3571 34.8517C28.4596 35.0964 28.4497 35.3609 28.334 35.6453Z" fill="white"/>
    <path d="M33.1447 32.4478L31.3794 31.393L32.6984 29.1842L31.6141 28.5361L30.2951 30.7449L28.7513 29.8223L30.153 27.4779L29.0687 26.8265L26.877 30.4969L33.4389 34.4185L35.6836 30.6589L34.6026 30.0108L33.1447 32.4478Z" fill="white"/>
    <path d="M34.9956 26.3702C35.2039 26.1222 35.4155 26.0032 35.6336 26.0098C35.8518 26.0164 36.0799 26.109 36.3179 26.2909L37.4684 27.2002C37.5907 27.2895 37.7097 27.3721 37.832 27.4449C37.951 27.5176 38.0799 27.5573 38.2089 27.5672L39.2832 26.2843L39.2336 26.2413C39.0783 26.3008 38.9097 26.2777 38.7179 26.1752C38.5361 26.0594 38.2816 25.8776 37.9609 25.6263C37.7956 25.5006 37.6469 25.3849 37.5146 25.2824C37.3791 25.1799 37.2535 25.0873 37.1378 25.0079C36.7808 24.7665 36.47 24.6508 36.2089 24.664C35.9477 24.6773 35.67 24.8128 35.3791 25.074L35.3626 25.0608C35.5708 24.6673 35.6171 24.2871 35.5014 23.92C35.3857 23.553 35.1279 23.2058 34.7345 22.8752C34.2254 22.4486 33.7328 22.27 33.2502 22.3329C32.7741 22.399 32.3279 22.6768 31.9146 23.1694L30.0898 25.3551L35.9543 30.2621L36.946 29.0784L34.4667 27.0018L34.9956 26.3702ZM34.0568 25.8213L33.6436 26.314L31.951 24.8988L32.4171 24.34C32.8766 23.7911 33.3758 23.7448 33.9179 24.1978C34.2353 24.4623 34.3973 24.7302 34.4039 24.9947C34.4105 25.2592 34.2915 25.537 34.0568 25.8213Z" fill="white"/>
    <path d="M40.8396 24.9517L38.6544 22.4519L40.5883 20.7589L39.7553 19.8099L37.8214 21.5029L36.6379 20.1472L38.6908 18.3484L37.8578 17.3961L34.6445 20.2133L39.6825 25.9668L40.8396 24.9517Z" fill="white"/>
    <path d="M40.2652 18.3451C40.4834 18.7882 40.7446 19.2511 41.0553 19.7405C41.3661 20.2332 41.6768 20.673 41.9809 21.0532C42.2851 21.4335 42.609 21.7245 42.9495 21.9229C43.29 22.1213 43.657 22.2072 44.0438 22.1808C44.4338 22.1543 44.8702 21.9857 45.3595 21.6782C45.8487 21.3673 46.1859 21.0433 46.3776 20.7027C46.5661 20.3621 46.6487 19.9951 46.6123 19.6016C46.5793 19.2081 46.457 18.7915 46.2421 18.355C46.0272 17.9152 45.7661 17.449 45.4487 16.9563C45.1413 16.4669 44.8338 16.0305 44.5231 15.6469C44.2157 15.2633 43.8917 14.9724 43.5512 14.774C43.2107 14.5756 42.8438 14.4863 42.4504 14.5028C42.0537 14.5194 41.614 14.6847 41.1247 14.9922C40.6355 15.303 40.3016 15.6304 40.1132 15.9809C39.9314 16.3314 39.8553 16.7017 39.8884 17.0952C39.9214 17.4887 40.0471 17.9053 40.2619 18.3451H40.2652ZM41.3528 16.3777C41.4157 16.2156 41.5413 16.0735 41.7363 15.9511C41.9314 15.8288 42.1132 15.7726 42.2851 15.7858C42.457 15.799 42.6355 15.8817 42.8239 16.0338C43.009 16.1859 43.2074 16.4074 43.419 16.6951C43.6338 16.9828 43.8752 17.3432 44.1495 17.7797C44.4239 18.2128 44.6487 18.5898 44.8206 18.9072C44.9925 19.2247 45.1082 19.4991 45.1644 19.7306C45.2239 19.962 45.2206 20.1571 45.1578 20.3192C45.095 20.4812 44.9661 20.6234 44.7743 20.7457C44.5793 20.8681 44.3975 20.9243 44.2256 20.911C44.0537 20.8978 43.8752 20.8185 43.69 20.6663C43.5049 20.5176 43.3099 20.296 43.095 20.005C42.8801 19.714 42.6355 19.3503 42.3611 18.9171C42.0834 18.4807 41.8619 18.107 41.6933 17.7929C41.5247 17.4788 41.4124 17.2043 41.3495 16.9696C41.29 16.7381 41.29 16.5397 41.3528 16.3777Z" fill="white"/>
    <path d="M50.5387 14.0762C50.6048 13.696 50.5387 13.2694 50.337 12.7966C50.0825 12.1849 49.7255 11.798 49.2693 11.636C48.8164 11.4739 48.2907 11.5169 47.699 11.7682L45.0742 12.8726L48.0362 19.9223L49.4577 19.3238L48.2048 16.3413L48.9651 16.0205C49.2593 15.8982 49.504 15.8883 49.6957 15.9941C49.8874 16.0999 50.0461 16.2884 50.1783 16.5595L50.7866 17.8954C50.8494 18.031 50.9188 18.1566 50.9916 18.279C51.0643 18.4013 51.1602 18.4939 51.2726 18.5633L52.8131 17.9152L52.7866 17.8557C52.6246 17.8392 52.4825 17.74 52.3602 17.5614C52.2511 17.3729 52.1122 17.0952 51.9403 16.7248C51.8544 16.5364 51.775 16.3677 51.7056 16.2156C51.6329 16.0635 51.5635 15.9213 51.4941 15.7957C51.2891 15.4187 51.0643 15.174 50.8263 15.0649C50.5883 14.9558 50.2775 14.9492 49.9007 15.0484L49.894 15.0286C50.261 14.7739 50.4759 14.4565 50.5387 14.0762ZM49.0709 14.5293C48.9552 14.7673 48.7238 14.9591 48.3833 15.1046L47.7916 15.3526L46.9387 13.319L47.6098 13.038C48.2676 12.7602 48.737 12.9487 49.0081 13.6001C49.1701 13.9804 49.1899 14.2912 49.0742 14.5293H49.0709Z" fill="white"/>
    <path d="M53.9536 9.76112L51.709 10.2207L53.2396 17.7135L54.6247 17.4292L53.4015 11.4475L53.4214 11.4442L55.9768 17.1514L57.1536 16.9133L57.2627 10.6572L57.2825 10.6539L58.5057 16.6356L59.8908 16.3545L58.3602 8.86172L56.1255 9.31473V14.8269L56.1057 14.8335L53.9536 9.76112Z" fill="white"/>
    <path d="M62.0748 14.7409L64.1079 14.731L64.4682 16.3479L66.0748 16.3413L64.0153 8.703L62.1112 8.70962L60.1211 16.3677L61.7277 16.3611L62.0748 14.7409ZM63.0599 10.0356H63.0831L63.8368 13.4711L62.336 13.4778L63.0599 10.0356Z" fill="white"/>
    <path d="M68.6118 11.3582L68.6317 11.3615L69.5936 16.9563L71.3259 17.2506L72.6052 9.71152L71.2135 9.47345L70.3374 14.6384L70.3176 14.6351L69.3523 9.15932L67.6036 8.86172L66.3242 16.4008L67.716 16.6389L68.6118 11.3582Z" fill="white"/>
    <path d="M76.1626 15.7858C76.0237 16.1759 75.8915 16.4835 75.7626 16.7083C75.6303 16.9298 75.5014 17.0952 75.3758 17.1977C75.2469 17.3035 75.1213 17.3564 74.9956 17.363C74.87 17.3696 74.7411 17.3498 74.6122 17.3035C74.4568 17.2506 74.3312 17.1712 74.2353 17.0654C74.1427 16.9596 74.0865 16.8009 74.0733 16.5893C74.0601 16.3776 74.0932 16.0966 74.1725 15.7461C74.2518 15.3956 74.3874 14.9492 74.5758 14.4003C74.7543 13.8878 74.9196 13.4579 75.0684 13.114C75.2171 12.7668 75.3626 12.499 75.5047 12.3006C75.6469 12.1055 75.7989 11.9798 75.951 11.9236C76.1031 11.8674 76.2684 11.8674 76.4502 11.9336C76.7808 12.0493 76.9659 12.2477 77.0089 12.5287C77.0518 12.8131 76.9824 13.2165 76.7973 13.7423L78.2518 14.2482C78.3444 13.9837 78.4237 13.696 78.4898 13.3852C78.556 13.071 78.5626 12.7602 78.5031 12.4494C78.4436 12.1386 78.2948 11.8476 78.0535 11.5731C77.8122 11.302 77.432 11.0738 76.913 10.892C76.3675 10.7035 75.9014 10.644 75.5113 10.7167C75.1246 10.7895 74.7874 10.9614 74.4998 11.2326C74.2122 11.5037 73.9642 11.8608 73.7527 12.3072C73.5444 12.7536 73.3427 13.2496 73.1543 13.7919C72.9626 14.3474 72.8105 14.8599 72.7047 15.3361C72.5956 15.8122 72.5692 16.2454 72.6287 16.6356C72.6849 17.0257 72.8469 17.3663 73.108 17.654C73.3725 17.9417 73.7758 18.1797 74.3246 18.3715C74.8006 18.5369 75.2171 18.5997 75.5708 18.5534C75.9246 18.5104 76.2254 18.3848 76.4832 18.1797C76.7378 17.9747 76.9593 17.7069 77.1411 17.3762C77.3229 17.0456 77.4849 16.6852 77.6204 16.295L76.1626 15.7891V15.7858Z" fill="white"/>
    <path d="M77.1836 19.3205L81.0547 21.3706L81.6431 20.2563L79.1373 18.927L80.0993 17.1084L82.3704 18.312L82.9621 17.1944L80.691 15.9908L81.5307 14.4003L83.9472 15.68L84.5357 14.5623L80.7605 12.5651L77.1836 19.3205Z" fill="white"/>
    <path d="M42.9354 11.1532C45.8842 9.56934 49.0577 8.3029 52.4296 7.41342C55.547 6.59338 58.671 6.15691 61.7685 6.03457C61.7486 5.99819 61.7619 5.90561 61.7652 5.69068C61.9966 5.68407 61.9569 5.60471 61.99 6.02134C69.0676 5.77334 75.9668 7.26463 82.1553 10.2075C82.347 10.1447 82.5222 10.0356 82.5552 9.72805C82.5486 9.72475 82.5387 9.72144 82.5321 9.71813C80.8495 9.67515 81.1966 9.78757 80.8462 9.25521C81.147 8.94439 81.1966 9.27505 81.3321 9.37755C81.3982 9.33457 81.4643 9.29819 81.5305 9.25521C78.5123 7.8995 75.342 6.87775 72.0693 6.22304C72.023 6.24619 71.9271 6.26934 71.699 6.32886C71.6858 6.23958 71.6759 6.18998 71.6726 6.15361C71.5635 6.13377 71.4511 6.11393 71.342 6.09409C71.3685 6.16022 71.3883 6.20651 71.4214 6.28587C71.299 6.20651 71.2032 6.13046 71.1238 6.05771C65.0346 4.97976 58.6346 5.14178 52.2743 6.81493C48.9321 7.69449 45.7883 8.951 42.8594 10.5018C42.9288 10.5944 42.985 10.7167 42.9751 10.8589C42.9685 10.9548 42.9519 11.054 42.9387 11.1565L42.9354 11.1532Z" fill="white"/>
    <path d="M74.644 91.5733C74.644 91.5733 74.6143 91.5833 74.5977 91.5866C68.2539 93.2597 61.8705 93.4019 55.8044 92.3008C55.6622 92.3934 55.4242 92.4562 55.0077 92.4529C54.7267 92.4496 54.449 92.3669 54.0688 92.3041C54.1019 92.2148 54.1482 92.0958 54.1845 91.9999C48.7366 90.793 43.5895 88.5445 39.0176 85.4297C39.0473 85.6876 39.0672 85.8529 39.0903 86.0414C39.4341 85.9918 39.8672 85.9389 39.8969 86.3654C39.9068 86.4944 39.8606 86.5936 39.7977 86.6763C43.5134 89.0471 47.5696 90.8624 51.844 92.0429C51.9002 92.0197 51.9961 92.023 52.1812 92.0429C52.1548 92.0627 52.1217 92.0892 52.092 92.109C59.282 94.0533 67.0473 94.2286 74.7531 92.1983C74.9746 92.1388 75.1829 92.0594 75.4044 91.9999C75.1234 91.8875 74.8391 91.7784 74.5382 91.6494C74.5746 91.6263 74.6077 91.6064 74.6407 91.5833L74.644 91.5733Z" fill="white"/>
    <path d="M126.001 53.5606C123.032 47.9857 120.083 42.5099 117.154 37.1234C118.087 32.0908 119.035 27.1441 120.004 22.2966C115.991 21.5526 112.053 21.2219 108.182 21.2186C108.182 21.2219 108.182 21.2252 108.182 21.2285C108.169 21.2219 108.166 21.2219 108.156 21.2186C106.827 21.2186 105.508 21.2616 104.196 21.3344C103.908 20.9045 103.614 20.4779 103.306 20.0646C103.101 20.1208 103.131 20.1142 103.095 20.0349C103.158 20.0018 103.187 19.9819 103.23 19.9588C97.1047 11.7452 88.5758 5.67093 78.9626 2.49327C79.0155 2.55279 79.0419 2.65199 79.0353 2.81071C78.7246 2.72143 78.308 2.857 78.2287 2.37423C78.3609 2.43375 78.5394 2.40069 78.6981 2.40399C77.8452 2.12624 76.9824 1.87493 76.1163 1.64347C76.1394 1.77574 76.1428 1.91792 76.0766 2.08656C75.7758 1.96091 75.5213 1.85179 75.2568 1.73936C75.2866 1.64017 75.3163 1.54758 75.3461 1.44838C67.5609 -0.48268 59.2039 -0.552119 50.9163 1.63025C29.8684 7.17874 15.5642 25.5503 14.1494 46.1505C14.6287 46.124 15.1246 46.1604 15.637 46.2761C11.2899 46.5109 6.87002 46.3555 2.35101 45.6909C2.14936 46.1075 1.98077 46.4514 1.81548 46.7953C1.76258 46.0678 0.972501 46.0248 0.555972 45.671C0.704733 45.5421 0.516303 45.5553 2.10969 45.6545C1.40886 45.5487 0.708039 45.4627 0.00390625 45.3338C0.460105 46.2861 0.909691 47.2251 1.36589 48.1741C1.5444 48.0485 1.44853 48.022 1.79234 48.227C1.51465 48.3626 1.59068 48.3957 1.37911 48.2039C3.54771 52.734 5.713 57.2309 7.86506 61.6717C7.2568 66.711 6.63531 71.6875 6.0006 76.5945C11.4155 77.5964 16.6882 77.851 21.8518 77.5534C21.8518 77.5071 21.8551 77.4575 21.8485 77.4112C21.9609 77.4476 22.0403 77.4873 22.1031 77.5335C22.3014 77.5203 22.5031 77.5071 22.7014 77.4906C23.8452 79.1538 25.0849 80.7344 26.4072 82.2322C26.4204 82.2025 26.437 82.1727 26.4502 82.1397C27.3031 82.0824 27.929 82.4824 28.3279 83.34C27.9356 83.3951 27.681 83.1879 27.5642 82.7183C27.4122 82.8109 27.2766 82.8936 27.1345 82.9795C27.3791 83.2672 27.4717 83.3664 27.4981 83.4259C27.8023 83.7467 28.113 84.0575 28.4237 84.3716C28.4502 84.2923 28.4733 84.2195 28.5031 84.1269C28.6023 84.3022 28.6518 84.4708 28.6816 84.6362C29.713 85.6546 30.7841 86.63 31.8948 87.5526C32.0304 87.298 32.1626 87.0533 32.3345 86.7259C32.5494 87.0368 32.7642 87.2814 32.8998 87.5625C32.9791 87.7278 32.6651 87.9428 32.4436 87.8866C32.3742 87.87 32.3014 87.8436 32.2287 87.8171C33.3295 88.7165 34.47 89.563 35.6436 90.3632C35.8023 90.0987 36.2353 90.0689 36.4138 89.8011C36.5163 89.6523 36.6419 89.7151 37.0386 90.0855C36.6618 90.2574 36.308 90.4161 35.9576 90.5748C38.8337 92.5026 41.9014 94.1328 45.118 95.4289C45.0981 95.343 45.1147 95.2272 45.151 95.0024C45.3956 95.2603 45.4386 95.3198 45.3923 95.5314C46.3642 95.915 47.3527 96.2721 48.3477 96.5929C48.3378 96.4209 48.2585 96.2655 48.0039 96.1432C47.8717 96.077 47.951 95.6604 47.9213 95.2471C48.5593 95.6703 48.6948 96.2556 48.913 96.7714C55.1609 98.7124 61.8452 99.4299 68.6122 98.7256C68.5064 98.5768 68.3874 98.4082 68.2452 98.2164C68.9494 97.9387 69.3229 98.2396 69.6899 98.6033C70.3642 98.5173 71.0386 98.4181 71.713 98.3057C71.7064 98.2859 71.6998 98.266 71.6932 98.2462C71.8287 98.1172 72.0237 98.1371 72.2122 98.223C73.5146 97.9883 74.8171 97.7039 76.1163 97.3633C76.7642 97.1914 77.4056 97.0095 78.0436 96.8144C78.037 96.4606 78.0303 96.2688 78.027 96.0076C79.5014 95.9646 79.4023 95.9018 78.1064 96.7979C81.7791 95.667 85.2237 94.1328 88.4204 92.2678C88.2188 92.0595 88.2783 92.0066 88.8171 91.7222C88.751 91.871 88.6882 92.0066 88.6254 92.1521C92.5295 89.8507 96.0502 87.0434 99.1246 83.8426C99.1047 83.8227 99.0717 83.7996 99.0717 83.7831C99.0981 83.502 99.2865 83.4656 99.5113 83.4425C107.359 75.0867 112.196 64.1385 112.91 52.4992C117.191 52.4198 121.544 52.7373 125.997 53.5606H126.001ZM106.209 46.6729C105.822 46.9474 105.439 47.2284 104.83 47.0267C105.111 46.7986 105.359 46.5936 105.66 46.3489C106.1 46.6101 106.189 46.6663 106.209 46.6729C106.209 46.6729 106.215 46.6696 106.219 46.6663C106.219 46.6663 106.225 46.6663 106.229 46.6663C106.824 46.1439 106.705 46.1869 106.834 46.3323C106.685 46.5175 106.645 46.8482 106.229 46.6663C106.222 46.6696 106.222 46.6729 106.215 46.6762L106.209 46.6729ZM105.657 51.2989C105.406 50.9352 105.561 50.6508 105.849 50.2606C105.93 50.5384 105.866 50.8845 105.657 51.2989ZM105.67 52.0296C105.389 52.1388 105.26 52.1057 105.277 51.8742C105.28 51.818 105.346 51.7618 105.386 51.7056C105.478 51.8114 105.568 51.9139 105.67 52.0296ZM103.32 41.7924C104.057 41.1079 103.495 41.4948 104.801 41.5278C105.872 41.5576 105.72 41.184 105.792 41.6899C103.997 42.2586 104.543 42.2586 103.32 41.7924ZM104.606 43.1547C104.46 43.0985 104.401 43.0323 104.371 42.9596C104.308 42.8108 104.414 42.6389 104.427 42.4868C104.463 42.619 104.5 42.7612 104.539 42.9166C104.559 42.9927 104.579 43.0654 104.602 43.1547H104.606ZM104.196 49.8175C103.779 50.006 103.858 50.0358 103.806 49.7481C104.239 49.6819 104.159 49.6588 104.196 49.8175ZM103.898 47.0102C104.126 47.288 104.096 47.1788 104.03 47.4202C103.789 47.3276 103.839 47.4202 103.898 47.0102ZM97.9213 47.8831C98.1692 48.0187 98.1295 48.2601 98.1989 48.5709C97.9212 48.4486 97.7956 48.3957 97.6171 48.3163C97.6667 48.1807 97.7163 48.0485 97.7692 47.9129C97.5874 47.9493 97.4056 47.979 97.2237 48.0154C96.0039 46.7887 94.7874 45.5751 93.5708 44.3781C93.3328 44.1434 93.0948 43.9119 92.8601 43.6804C92.8601 43.7334 92.87 43.7697 92.87 43.8325C92.7741 43.7367 92.675 43.6408 92.5791 43.5449C92.4766 43.4424 92.3741 43.3432 92.2684 43.2374C92.3113 43.2208 92.3411 43.2175 92.3775 43.2043C91.0849 41.9346 89.7956 40.6813 88.5097 39.4414C88.4667 39.5472 88.4138 39.653 88.3246 39.7489C88.3047 39.524 88.2915 39.3653 88.2783 39.2198C86.2551 37.2722 84.2386 35.3478 82.2287 33.4597C84.2948 32.7984 86.3675 32.1867 88.4535 31.6345C89.7031 32.8414 90.9527 34.0615 92.2056 35.2949C92.2419 35.2453 92.4105 35.1725 92.8866 34.9179C92.8667 35.3875 92.5824 35.3808 92.3378 35.4271C93.3989 36.472 94.4601 37.5301 95.5246 38.5949C95.6898 38.618 95.7461 38.7106 95.7692 38.8363C95.8816 38.9487 95.994 39.0578 96.1064 39.1702C98.6089 41.6866 101.128 44.2624 103.657 46.9176C101.73 47.1656 99.8221 47.4963 97.9213 47.8765V47.8831ZM101.445 50.5648C101.267 50.4987 101.277 50.6078 101.449 50.0424C101.518 50.0523 101.584 50.0622 101.653 50.0754C101.663 50.3499 101.736 50.2308 101.445 50.5648ZM101.253 48.9512C101.204 49.305 101.26 49.2521 101.032 49.2223C101.148 48.8685 101.092 48.9148 101.253 48.9512ZM97.2469 49.8241C96.8601 49.9696 96.9361 49.9795 96.8733 49.8175C97.2799 49.7117 97.2006 49.7051 97.2469 49.8241ZM96.6915 48.4221C96.3235 48.1863 96.318 47.9471 96.675 47.7046C96.6816 47.9625 96.6849 48.1543 96.6915 48.4221ZM95.4518 47.8633C95.1102 47.8787 94.8965 47.6682 94.8105 47.2317C95.0055 47.4235 95.1973 47.6153 95.4518 47.8633ZM90.6122 49.6324C90.8204 49.7944 90.8006 49.7679 90.5394 50.1019C90.2915 49.9233 90.2518 49.9829 90.351 49.7051C90.2056 49.7448 90.0634 49.7845 89.918 49.8274C88.3609 50.2672 86.8072 50.7268 85.2601 51.2261C86.3907 48.3428 87.5279 45.5057 88.6684 42.6818C88.6188 42.6752 88.5725 42.6719 88.4998 42.662C88.5824 42.6256 88.6452 42.5959 88.7113 42.5694C88.8733 42.1693 89.032 41.756 89.194 41.3559C90.4932 42.6256 91.7923 43.9119 93.0981 45.2081C93.1411 45.2511 93.1841 45.2908 93.227 45.3338C92.7675 46.6432 92.3047 47.9592 91.8485 49.2818C91.432 49.391 91.0221 49.5166 90.6056 49.629L90.6122 49.6324ZM91.627 54.8866C91.4518 54.8105 91.3196 54.751 91.0584 54.6386C91.5246 54.4402 91.6502 54.5129 91.627 54.8866ZM85.4849 55.6206C85.3262 55.7529 85.2766 55.8157 85.2303 55.8356C85.1808 55.8554 85.1345 55.8223 84.9725 55.7529C85.1973 55.5049 85.1047 55.5512 85.4585 55.614C85.4717 55.614 85.475 55.6173 85.4849 55.6206ZM71.9279 56.0637C70.0403 56.8044 68.1527 57.5616 66.2651 58.3188C65.4122 53.8681 64.556 49.4174 63.7031 44.9667C63.5014 43.9086 63.2965 42.8505 63.0948 41.7924C62.9725 41.6899 62.7874 41.5245 62.4733 41.2567C62.675 41.131 62.8337 41.1079 62.9692 41.141C62.9394 40.9856 62.9097 40.8268 62.8799 40.6714C64.7642 39.9142 66.6518 39.157 68.5427 38.4163C68.7709 39.61 69.0023 40.8037 69.2304 41.9974C69.4485 43.1349 69.6667 44.2756 69.8849 45.4131C71.6932 44.7022 73.5014 44.0078 75.3163 43.3333C75.5345 44.4674 75.7527 45.6016 75.9708 46.7391C74.156 47.4136 72.3477 48.1113 70.5394 48.8189C70.9295 50.8459 71.3163 52.8761 71.7064 54.9064C71.8452 54.7311 71.9775 54.5625 72.1196 54.3806C72.6122 54.8039 72.1626 55.2304 71.7461 55.1147C71.8056 55.4321 71.8684 55.7496 71.9279 56.0703V56.0637ZM66.6882 63.3647C66.4568 63.2457 66.4899 63.3779 66.5923 62.7398C67.0485 63.0803 67.075 62.9117 66.6882 63.3647ZM66.1791 63.4672C65.8948 63.5433 65.6634 63.6028 65.3064 63.6987C65.5466 63.2843 65.8375 63.2071 66.1791 63.4672ZM49.5312 70.8873C49.4023 70.9137 49.2535 70.831 48.9031 70.7484C49.2006 70.5533 49.3394 70.4111 49.508 70.3648C49.9246 70.2557 50.113 70.7682 49.5345 70.8873H49.5312ZM43.8485 65.7356C43.8221 65.7554 43.7857 65.7818 43.7593 65.8017C43.6634 65.8744 43.5675 65.9439 43.4485 66.0331C43.4353 65.848 43.4386 65.7686 43.508 65.7389C43.5642 65.7157 43.6601 65.719 43.8485 65.7389V65.7356ZM39.9973 71.3899C39.5576 71.7007 39.2865 71.37 38.9328 71.3799C38.9262 71.0625 38.9229 70.7914 38.9163 70.4772C39.6403 70.4805 39.5808 71.132 39.9973 71.3866V71.3899ZM38.9461 68.9297C38.956 68.4933 38.9593 68.2221 38.9659 67.865C39.3989 68.027 39.7064 68.1395 40.1956 68.3213C39.7163 68.5528 39.4089 68.7016 38.9427 68.9297H38.9461ZM40.3708 72.4513C40.6155 72.6662 40.8469 72.8745 41.1213 73.1159C41.0783 73.1688 40.9593 73.3342 40.9494 73.3308C40.5097 73.0928 40.0866 73.3507 39.6601 73.4036C39.6138 73.4102 39.5675 73.3804 39.4585 73.3474C39.3692 72.6563 40.1725 72.8282 40.3708 72.448V72.4513ZM40.794 72.1834C40.2485 71.9057 40.3576 71.5684 40.427 71.2477C40.2353 71.1121 40.0634 70.9931 39.9014 70.8773C39.9279 70.6922 39.9775 70.5169 39.9675 70.3516C39.9576 70.1796 39.8783 70.0209 39.6204 69.8953C39.4849 69.8291 39.5675 69.4092 39.5378 68.9893C40.1857 69.4191 40.3213 70.011 40.5394 70.5334C40.589 70.6525 40.6386 70.7715 40.7047 70.8806C42.5593 71.3303 40.5494 70.755 40.7973 72.1834H40.794ZM41.2469 66.8334C41.8485 66.7441 41.7461 66.7209 41.7758 66.873C41.1708 66.9722 41.2733 66.9954 41.2469 66.8334ZM41.6105 65.5967C41.8518 65.6992 41.9775 65.7554 42.156 65.8314C41.8419 66.0298 41.7064 65.9703 41.6105 65.5967ZM37.713 68.4867C37.8056 68.7743 37.7659 68.8669 37.4122 68.9033C37.3262 68.5759 37.3262 68.9033 37.3857 67.6997C37.8783 67.5674 38.3477 67.3955 38.8436 67.6302C38.7014 67.9774 38.47 67.9907 38.1593 67.9675C37.7527 67.9411 37.5907 68.113 37.713 68.48V68.4867ZM36.9725 69.2769C36.9626 69.3265 36.9494 69.3761 36.9328 69.4489C36.7841 69.3265 36.718 69.267 36.6948 69.1711C36.675 69.0852 36.6915 68.9694 36.7279 68.7413C36.9758 69.0025 37.0188 69.062 36.9725 69.2769ZM31.8915 63.3548C32.2948 65.4512 32.6948 67.5476 33.0981 69.6473C31.1477 70.0672 29.1841 70.4276 27.2105 70.7153C26.1064 64.9684 25.0056 59.2215 23.9014 53.4746C23.875 53.3391 23.8485 53.2035 23.8221 53.0646C25.7989 52.7769 27.7593 52.4198 29.7097 51.9966C30.1857 54.4798 30.6618 56.9631 31.1378 59.4464C31.3097 59.5588 31.4849 59.6712 31.6601 59.7837C32.0601 59.6944 32.4601 59.6018 32.8601 59.5092C32.8502 59.5059 32.8469 59.5092 32.837 59.4993C32.9328 59.3406 33.0155 59.2083 33.1378 59.0099C33.2304 59.1422 33.3196 59.2083 33.3163 59.2744C33.3163 59.3207 33.3064 59.367 33.2998 59.4067C34.4039 59.1455 35.5047 58.871 36.5989 58.5734C36.8204 59.7307 37.0419 60.8881 37.2634 62.0454C36.9064 62.1413 36.5494 62.2305 36.189 62.3231C34.7609 62.6968 33.3295 63.0473 31.8882 63.3581L31.8915 63.3548ZM35.0783 65.6793C35.0783 65.6793 35.0584 65.6793 35.0419 65.6826C34.3576 65.7785 34.3047 65.7587 34.2419 65.2958C34.2386 65.266 34.232 65.2495 34.2287 65.2164C34.6618 65.1007 34.8469 65.352 35.0783 65.6793ZM31.7262 72.6265C31.627 72.8249 31.5312 73.0101 31.3857 73.3011C31.1411 73.0597 30.9262 72.8481 30.589 72.5174C31.0816 72.5637 31.3923 72.5935 31.7262 72.6265ZM30.2948 75.5628C29.8816 75.5132 29.9378 75.5628 30.0105 75.3644C30.3775 75.4669 30.3312 75.4173 30.2948 75.5628ZM18.9295 56.3084C18.7775 56.401 18.6386 56.487 18.4965 56.5729C18.7444 56.8639 18.837 56.9631 18.8634 57.0226C18.8832 57.0722 18.8601 57.0954 18.8171 57.1714C17.4816 56.8507 17.8717 56.9929 17.4452 56.4936C17.5642 56.239 17.6634 56.0273 17.7593 55.8157C17.7725 55.786 17.789 55.7529 17.8023 55.7231C18.664 55.6658 19.2976 56.0703 19.7031 56.9367C19.3064 56.9918 19.0485 56.7812 18.9295 56.3051V56.3084ZM18.9593 57.8559C18.8535 57.9386 18.7312 58.0311 18.6056 58.0609C18.4965 58.084 18.2915 58.0179 18.2518 58.0146C18.5163 57.7302 18.4998 57.641 18.8998 57.6873C18.9328 57.6906 18.9791 57.8394 18.9593 57.8559ZM39.5444 42.0371C39.5444 42.0371 39.5345 42.0371 39.5279 42.0371L39.5345 42.0271C39.2017 42.1065 38.9416 42.0448 38.7543 41.842C39.2568 41.6237 39.4915 42.09 39.5345 42.0271C39.5378 42.0304 39.5411 42.0338 39.5444 42.0371C39.7758 42.0172 40.0072 41.9974 40.2783 41.9742C40.2188 42.047 40.1824 42.0867 40.1361 42.1396C39.9576 42.3446 39.8618 42.3876 39.7229 42.2487C39.6733 42.1991 39.6171 42.1296 39.5444 42.0371ZM41.3097 41.5477C41.5786 41.3956 41.7361 41.4628 41.7824 41.7494C41.6138 41.6766 41.4816 41.6204 41.3097 41.5477ZM44.2816 40.8831C44.318 40.7772 44.3675 40.6747 44.4138 40.5722C44.6155 40.6615 44.6452 40.5987 44.3907 40.9393C44.3907 40.9393 44.2783 40.893 44.2816 40.8831ZM49.8386 38.9784C50.2518 38.9321 50.5758 38.8925 50.9692 38.8495C50.8039 39.3719 50.6485 39.8514 50.4899 40.3573C50.2452 40.3639 50.0271 40.3672 49.7031 40.3738C50.1791 39.2496 50.1659 39.5538 49.8386 38.9784ZM54.0337 44.1599C53.5014 44.6559 53.3956 44.6327 53.118 43.988C52.9659 43.6342 52.5031 43.1977 52.8634 42.9629C52.9593 42.9001 53.2237 42.9001 53.2733 42.9662C53.5444 43.3266 54.1295 43.4953 54.0337 44.1599ZM53.6304 37.5434C53.789 37.1896 53.6733 37.2921 54.1758 37.2425C53.6733 37.6624 53.7725 37.626 53.6304 37.5434ZM52.8998 45.466C52.9262 45.5057 52.9527 45.5487 52.9791 45.5884C52.0303 46.1273 52.1857 46.1042 52.0601 45.9091C52.2287 45.5917 52.6353 45.638 52.8998 45.466ZM52.2551 45.5222C52.2056 45.5586 52.0006 45.509 52.0006 45.4991C52.0105 45.3271 52.0403 45.1519 52.0667 44.9799C52.1956 44.9932 52.2287 44.9866 52.2353 44.9998C52.3477 45.1684 52.4932 45.3437 52.2518 45.5222H52.2551ZM56.3907 42.2718C57.1014 42.0834 56.9824 42.0767 57.0188 42.2222C56.3279 42.4041 56.4469 42.4107 56.3907 42.2718ZM61.6733 33.635C61.7527 33.2878 61.6998 33.3374 61.8585 33.3473C61.8518 33.7011 61.8981 33.6416 61.6733 33.635ZM61.9146 40.7905C61.5742 40.8301 61.2667 40.8665 60.7444 40.9293C61.1378 40.43 61.2304 39.9903 61.9146 40.7905ZM62.9923 57.6542C63.0882 57.436 63.1543 57.2805 63.2535 57.0491C63.3791 57.3489 63.2921 57.5506 62.9923 57.6542ZM62.8832 59.9655C62.6155 60.1242 62.4766 59.9854 62.3841 59.7605C62.8667 59.2546 63.1411 59.8134 62.8832 59.9655ZM62.3014 55.4652C62.556 55.6107 62.513 55.5446 62.4237 55.7496C62.1461 55.6339 62.1659 55.7033 62.3014 55.4652ZM52.5394 60.4747C52.632 60.2763 52.7477 60.3061 53.4717 60.5938C53.4122 60.2829 53.3527 59.9721 53.2932 59.6613C54.232 59.3042 55.1675 58.9438 56.1031 58.58C56.037 58.2295 55.9675 57.879 55.9014 57.5318C55.8386 57.4789 55.7824 57.4327 55.7196 57.3764C55.7692 57.3533 55.8122 57.3368 55.8618 57.3136C55.7989 56.9896 55.7394 56.6688 55.6766 56.3448C56.0138 56.2125 56.3477 56.0769 56.6849 55.9447C56.6816 55.9381 56.6816 55.9381 56.675 55.9314C57.0386 55.6768 56.9758 55.6868 57.0585 55.7959C58.2915 55.3098 59.5246 54.8237 60.7576 54.331C60.7642 54.3244 60.7642 54.3211 60.7709 54.3112C60.7775 54.3145 60.7808 54.3145 60.7874 54.3178C60.7973 54.3145 60.8072 54.3112 60.8171 54.3079C60.8171 54.3178 60.8204 54.3244 60.8237 54.3344C61.0981 54.46 61.0585 54.4203 60.9626 54.6154C60.9196 54.589 60.8998 54.579 60.8667 54.5592C61.2204 56.3944 61.5709 58.2295 61.9246 60.0647C59.2799 61.1261 56.632 62.1743 53.9742 63.1828C53.8386 62.4719 53.6998 61.7577 53.5642 61.0468C52.7907 61.1162 52.4436 60.6963 52.5461 60.4714L52.5394 60.4747ZM53.2667 63.282C53.0056 63.0671 53.0386 63.1597 53.2006 62.9349C53.4816 63.1432 53.4783 63.0638 53.2667 63.282ZM53.5543 56.5663C54.1659 56.487 53.9874 57.2045 54.4965 57.3136C54.1097 57.6873 53.7031 58.0543 54.0965 58.6131C53.5213 58.7123 53.67 58.7388 52.9527 57.5682C53.4254 56.9201 53.2667 57.1516 53.5543 56.5696V56.5663ZM53.151 50.869C53.6535 51.3154 53.6965 51.117 53.2337 51.6262C53.032 51.5403 53.0651 51.6659 53.151 50.869ZM53.6667 54.8436C53.8056 54.9362 53.8981 54.9824 53.9642 55.0519C53.9808 55.0684 53.908 55.204 53.8849 55.204C53.4585 55.1842 53.5874 55.1048 53.6634 54.8436H53.6667ZM54.1262 47.2417C54.6089 46.997 54.5097 46.9871 54.5989 47.2284C54.0932 47.3607 54.1857 47.3739 54.1262 47.2417ZM53.8056 58.9768C53.7956 59.1091 53.7791 59.2381 53.7593 59.367C53.6766 59.3538 53.594 59.3406 53.5147 59.3306C53.5675 59.205 53.6138 59.0793 53.6733 58.957C53.6766 58.9471 53.8056 58.9702 53.8056 58.9768ZM56.5527 46.7126C56.8138 46.7225 56.7576 46.6101 56.7841 47.2714C56.4832 47.0367 56.394 46.8978 56.5527 46.7126ZM58.3014 54.6187C57.9532 54.8722 57.7009 54.8171 57.5444 54.4534C57.7692 54.503 57.9907 54.5493 58.3014 54.6187ZM58.1328 52.7869C58.275 52.8331 58.2618 52.7637 58.2518 53.0117C58.0766 52.9522 58.0998 53.0183 58.1328 52.7869ZM59.3064 53.9508C59.6436 53.5871 59.4981 53.7094 59.8684 53.5044C59.8684 53.8847 59.7229 53.9971 59.3064 53.9508ZM60.7973 50.2904C61.0089 50.6045 60.9659 50.4987 60.8932 50.7004C60.632 50.621 60.4998 50.6508 60.7973 50.2904ZM61.1973 52.1024C61.8518 52.0826 61.7527 52.0263 61.7461 52.271C61.0882 52.2809 61.1907 52.3339 61.1973 52.1024ZM43.0122 50.9352C42.8733 51.5733 42.3675 51.4774 41.5146 51.5766C42.0237 51.1203 42.4204 50.7632 42.8766 50.3532C42.9328 50.5681 43.0485 50.7632 43.0122 50.9352ZM43.518 58.4676C43.1808 58.59 42.9031 58.6892 42.5163 58.828C42.4832 58.5668 42.4535 58.342 42.427 58.1138C43.0023 58.0763 43.367 58.1943 43.5213 58.4676H43.518ZM41.5213 62.7497C41.908 62.4885 42.318 62.5083 42.7675 62.7365C42.6518 62.958 42.5461 63.1597 42.394 63.4507C41.951 62.9349 42.1758 62.9977 41.3725 63.2457C41.4386 63.0076 41.4287 62.8125 41.518 62.7497H41.5213ZM42.7113 62.3264C42.9923 62.2008 43.1742 62.1214 43.4485 61.9991C43.3461 62.4554 43.1874 62.581 42.7113 62.3264ZM42.9461 61.0534C43.2072 60.8848 43.0551 60.8054 43.6237 61.5593C43.0056 61.6221 42.913 61.3874 42.9461 61.0534ZM39.6965 47.6748C39.2865 47.8798 39.3758 47.8865 39.2865 47.6848C39.7064 47.5326 39.6204 47.5227 39.6965 47.6748ZM37.2932 48.7495C37.0551 48.6833 36.989 48.5544 36.9692 48.4056C36.8766 48.5279 36.8667 48.475 36.7345 48.3659C36.8105 48.2965 36.8865 48.2303 36.9626 48.1642C36.9692 48.0551 36.9758 47.9493 36.9527 47.8468C37.151 47.7509 37.3461 47.6583 37.5808 47.5492C37.3229 47.3508 37.5907 47.3508 36.5692 47.5293C36.5262 46.8184 36.5692 46.782 37.1477 46.9375C37.3989 47.0069 38.1527 46.8019 38.5163 47.8765C38.1284 47.9405 37.7185 48.2325 37.2865 48.7528L37.2932 48.7495ZM38.2155 49.715C38.1989 49.7349 37.9808 49.6753 37.9742 49.629C37.9113 49.2488 38.1725 49.1364 38.3213 49.0074C38.394 49.2885 38.5196 49.3612 38.2155 49.715ZM35.6601 44.7353C35.5808 44.6724 35.594 44.5137 35.5477 44.3385C36.2287 44.5501 37.1014 44.4046 37.0155 45.4726C36.3973 45.6545 35.8089 46.0116 35.1609 46.2232C35.1279 46.1538 35.0948 46.0844 35.0618 46.0149C36.0865 45.2048 36.2122 45.185 35.6634 44.7353H35.6601ZM35.5708 43.6738C35.8618 43.859 35.8056 43.7697 35.6998 44.0309C35.3824 43.8425 35.4221 43.9317 35.5708 43.6738ZM35.0188 45.466C34.7874 45.6545 34.6155 45.8 34.3742 45.9984C34.2386 45.5983 34.1361 45.2841 34.0304 44.9733C34.7014 44.5931 34.5494 45.4065 35.0188 45.466ZM39.4717 49.4075C39.8452 51.3584 40.2188 53.3093 40.5956 55.2602C38.6783 55.8554 36.7543 56.4076 34.8171 56.9069C34.6684 56.1298 34.5196 55.3561 34.3708 54.579C33.4551 54.8138 32.5361 55.0354 31.6138 55.247C31.7791 55.3726 31.8948 55.528 31.8816 55.7826C31.832 55.7959 31.7824 55.8091 31.7328 55.8223C31.4056 55.6901 31.1841 55.495 31.2667 55.0783C31.0551 53.9839 30.8469 52.8894 30.6353 51.7949C33.6039 51.1236 36.5461 50.3168 39.4717 49.4108V49.4075ZM34.275 56.5531C33.9808 56.8342 33.713 56.8209 33.075 56.5035C33.4981 56.1861 33.8584 55.9182 34.2717 55.6107C34.394 55.9678 34.589 56.2522 34.275 56.5531ZM32.8006 58.4312C32.8237 58.1469 32.8436 57.9121 32.8634 57.6773C33.0243 57.9286 33.0034 58.1799 32.8006 58.4312ZM31.875 46.9705C31.9907 46.7721 32.1791 46.5936 32.1494 46.4646C32.0899 46.1869 32.2353 46.091 32.4899 45.9289C32.8138 46.6994 32.7675 46.7754 31.875 46.9672V46.9705ZM28.3047 47.6748C28.1956 47.7707 28.113 47.8832 28.0733 47.8699C27.9775 47.8435 27.8717 47.7773 27.832 47.698C27.8122 47.655 27.9213 47.5558 27.9708 47.4797C28.0634 47.5326 28.156 47.5856 28.3047 47.6748ZM26.1461 46.6994C26.2717 46.6498 26.394 46.5969 26.5229 46.5572C26.5328 46.5572 26.5923 46.6498 26.5857 46.6564C26.5527 46.6862 26.5196 46.7093 26.4866 46.7391C26.6023 46.7589 26.7146 46.8548 26.8337 47.03C26.5989 47.1292 26.4337 47.202 26.1989 47.3012C26.1923 47.116 26.1295 46.9507 26.1923 46.8746C26.2056 46.8581 26.2188 46.8548 26.232 46.8416C26.2023 46.7953 26.1725 46.749 26.1427 46.7027L26.1461 46.6994ZM24.4667 47.8732C24.7775 47.2714 24.6518 47.5326 24.9163 46.9275C25.1708 47.5326 25.0618 47.7377 24.4667 47.8732ZM20.1956 46.5274C20.1163 46.5473 20.0634 46.5407 20.027 46.4944C20.0832 46.5043 20.1394 46.5142 20.1956 46.5274ZM18.3113 52.5356C18.6188 52.5289 18.5824 52.5157 18.589 52.6546C18.5163 52.6678 18.4766 52.6744 18.4304 52.6844C18.2056 52.7273 18.2386 52.7207 18.2155 52.5356C18.2585 52.5356 18.275 52.5356 18.3113 52.5356ZM17.9246 51.9404C18.0998 51.6725 17.9345 51.6858 18.5262 51.8246C18.2485 52.1355 18.4138 52.1288 17.9246 51.9404ZM19.2006 48.4783C19.1609 47.9592 19.1312 48.0518 19.3097 48.0187C19.4419 48.5246 19.4783 48.432 19.2006 48.4783ZM23.7923 63.7417C23.6304 63.8805 23.475 64.0128 23.27 64.1848C22.7146 63.5433 22.6915 62.9679 23.1477 62.2901C23.2568 62.3694 23.475 62.5215 23.4717 62.5281C23.075 63.0341 23.5213 63.3416 23.7923 63.7417ZM23.6932 62.1214C23.3758 61.8205 23.4188 61.8933 23.5246 61.7742C23.8816 62.0388 23.8551 61.9594 23.6932 62.1214ZM23.6502 61.4667C23.5279 61.4237 23.4023 61.3741 23.2469 61.3212C23.27 61.2782 23.2899 61.2386 23.313 61.1989C23.4518 60.941 23.5841 60.693 23.7593 60.3623C23.9775 60.6764 24.1923 60.9244 24.3312 61.2088C24.4138 61.3741 24.0965 61.5957 23.8684 61.5395C23.7956 61.5229 23.7229 61.4965 23.6502 61.47V61.4667ZM21.3328 65.0544C21.0651 65.19 20.9262 65.2627 20.7642 65.3454C20.7466 65.0412 20.9361 64.9442 21.3328 65.0544ZM24.1229 72.815C23.8518 72.3785 23.6502 72.0611 23.3989 71.6544C23.475 71.4891 23.6237 71.2973 23.9642 71.4791C24.4733 71.747 24.5295 72.0082 24.1229 72.815ZM44.1328 55.6206C44.2188 55.2933 44.1725 55.3429 44.3246 55.3693C44.2518 55.7 44.2981 55.6504 44.1328 55.6206ZM44.5295 61.9892C45.0551 62.171 44.8072 62.4422 44.8039 62.6538C44.589 62.667 44.6618 62.7861 44.5295 61.9892ZM45.8717 65.6959C45.9411 65.5173 46.0039 65.352 46.0832 65.1404C46.5328 65.3288 46.9196 65.514 47.3361 65.4148C47.27 65.0676 47.2039 64.7204 47.1378 64.3765C47.0518 64.3203 46.9659 64.2641 46.8799 64.2046C46.9593 64.1914 47.0254 64.1848 47.1014 64.1748C47.0816 64.0789 47.0651 63.9831 47.0452 63.8905C46.7444 63.9731 46.6452 64.0029 46.5725 63.9864C46.6023 64.0293 46.4469 64.0723 45.9708 64.2906C45.789 64.9519 45.9213 64.727 45.2337 65.0842C45.3626 64.3335 45.4618 63.7516 45.5675 63.1332C45.9047 63.3779 46.3874 63.3978 46.3543 63.8805C46.6816 63.6855 46.8469 63.5962 46.989 63.5896C46.9692 63.4937 46.9527 63.3978 46.9328 63.3019C46.9196 63.3416 46.9097 63.3779 46.8965 63.4209C46.2783 63.2457 46.6915 62.8357 46.5593 62.4157C46.6684 62.4885 46.7411 62.5381 46.794 62.5744C46.1394 59.1686 45.4882 55.7661 44.8337 52.3603C44.7874 52.3603 44.7444 52.3669 44.6882 52.3636C44.7246 52.2644 44.7576 52.1751 44.7841 52.1024C44.5163 50.7136 44.2518 49.3215 43.9841 47.9328C45.8882 47.278 47.789 46.5903 49.6832 45.8793C50.8105 51.7618 51.9411 57.6443 53.0684 63.53C51.2634 64.2079 49.4518 64.8626 47.6337 65.4909C47.6899 65.6397 47.7428 65.8579 47.508 66.01C47.3659 66.1026 47.1246 66.1687 46.7014 66.1621C46.4171 66.1588 46.1361 66.0761 45.7527 66.01C45.7857 65.9207 45.832 65.7984 45.8717 65.7025V65.6959ZM46.0403 62.9051C45.8254 62.7001 45.6403 62.5182 45.4023 62.2901C45.6469 62.0156 45.8981 61.7346 46.156 61.4436C46.416 61.7213 46.3808 61.998 46.0502 62.2735C46.1196 62.4686 46.4965 62.6571 46.0403 62.9084V62.9051ZM52.5692 65.8083C52.2155 65.762 51.7527 65.9009 51.4948 65.4909C52.0237 65.4115 52.4998 65.3388 52.989 65.2627C53.0783 65.686 52.718 65.8281 52.5692 65.8083ZM51.4849 64.6741C51.4805 65.0489 51.2844 65.1767 50.8965 65.0577C51.1113 64.9188 51.2667 64.813 51.4849 64.6741ZM62.8171 60.6764C63.1896 60.5464 63.6149 60.7161 64.0932 61.1857C63.789 61.5328 63.8783 61.4237 63.7461 61.6387C63.6899 62.1776 64.351 61.7147 64.4304 62.1446C64.4667 62.3496 64.8072 62.4984 65.0618 62.7166C64.6089 62.9018 65.0882 63.0307 63.1378 62.2173C63.2766 61.8999 63.4221 61.5725 63.5312 61.3212C63.2799 61.0964 63.0651 60.9013 62.8171 60.6764ZM64.0403 59.5323C64.0899 59.4001 64.1857 59.2744 64.2948 59.1785C64.3213 59.1554 64.4766 59.2645 64.6518 59.3505C64.4965 59.5059 64.4006 59.6282 64.275 59.7076C64.2452 59.7241 64.027 59.5687 64.0403 59.5323ZM64.5956 60.1308C64.8237 59.863 64.708 59.9258 65.0849 59.9887C64.6618 60.2863 64.7907 60.2433 64.5956 60.1308ZM65.7427 35.7909C65.7956 35.7214 65.8452 35.6487 65.9047 35.5859C65.9113 35.5792 66.0171 35.6321 66.0138 35.6388C65.9113 35.9165 65.918 35.8669 65.7427 35.7909ZM66.1857 35.3312C66.5262 35.242 66.7675 35.1791 67.0717 35.0965C67.2271 35.3544 67.3725 35.5991 67.5609 35.9165C66.9031 35.9529 66.4535 35.8669 66.1857 35.3312ZM67.3196 37.4376C66.9956 37.2259 67.0618 37.3053 67.108 37.1433C67.4518 37.378 67.4254 37.3119 67.3196 37.4376ZM67.7295 34.0582C67.8419 33.6879 68.059 33.5313 68.3808 33.5887C68.189 33.797 68.2056 34.1839 67.7295 34.0582ZM69.4386 38.0658C71.3031 37.3384 73.1742 36.6374 75.0452 35.9496C76.1163 35.5594 77.1841 35.1659 78.2585 34.7923C78.0039 34.3194 78.0799 34.2632 79.0056 33.7044C79.2237 33.8929 79.3196 34.4087 79.3428 35.5098C79.1014 35.7644 78.8601 36.019 78.6221 36.2736C78.8535 37.4739 79.0816 38.6742 79.313 39.8745C78.632 40.1126 77.9543 40.3705 77.2733 40.6152C77.2998 40.688 77.3229 40.7673 77.3461 40.8599C77.237 40.7971 77.1444 40.7442 77.0551 40.6913C76.1956 41.0021 75.3361 41.3063 74.4766 41.627C74.4171 41.7097 74.3345 41.7428 74.2221 41.7196C74.1328 41.7527 74.0403 41.7858 73.951 41.8188C73.8816 41.4551 73.8122 41.0881 73.7428 40.7243C73.6039 41.0153 73.475 41.2865 73.3361 41.5807C73.0188 41.0219 73.0419 40.969 73.7394 40.6979C73.7031 40.5061 73.6667 40.3176 73.6303 40.1258C72.4502 40.5689 71.2733 41.0219 70.0998 41.4815C70.0899 41.4353 70.0832 41.3923 70.0733 41.346C69.8618 40.2515 69.6535 39.157 69.4419 38.0625L69.4386 38.0658ZM70.3213 32.7157C70.6122 32.4413 70.7642 32.4479 70.9494 32.8083C70.7047 32.7719 70.5593 32.7521 70.3213 32.7157ZM71.2469 29.6009C71.2436 29.5513 71.313 29.4951 71.3626 29.4289C71.4419 29.462 71.5047 29.4885 71.5675 29.5149C71.5113 29.5777 71.4651 29.6505 71.3956 29.6935C71.3725 29.7067 71.2502 29.6406 71.2469 29.6009ZM77.637 29.7596C77.6436 29.634 77.6502 29.5248 77.6568 29.376C77.7978 29.5039 77.7912 29.6317 77.637 29.7596ZM78.5494 27.9079C78.308 27.7756 78.2717 27.5772 78.4436 27.2532C78.6651 27.4284 78.8337 27.5673 79.0056 27.7029C78.913 27.9443 78.7576 28.0203 78.5494 27.9046V27.9079ZM79.1047 29.1049C78.9427 29.3496 78.8304 29.5149 78.6386 29.8026C78.5527 29.3694 78.6518 29.1975 79.1047 29.1049ZM79.1609 28.8503C79.1874 28.4766 79.1246 28.5461 79.4518 28.5791C79.3031 28.9429 79.3692 28.89 79.1609 28.8503ZM79.9345 29.7993C80.1394 29.6604 80.0601 29.6207 80.2981 29.9216C80.1229 30.0803 80.2056 30.0969 79.9345 29.7993ZM82.1394 26.7936C81.5675 27.0283 81.7857 27.4582 81.7461 27.8252C81.7394 27.8881 81.6799 27.9443 81.5742 28.1294C81.2932 27.3193 80.87 27.2863 81.6006 26.3703C81.7494 26.1852 81.9775 26.1322 82.1097 26.3009C82.2023 26.4166 82.199 26.7671 82.1394 26.7936ZM82.2551 30.6392C82.1791 30.7185 82.1196 30.7847 82.0568 30.8475C81.918 30.7218 81.7824 30.7284 82.0832 30.5069C82.0932 30.5003 82.1758 30.5763 82.2518 30.6392H82.2551ZM81.6469 28.7147C81.4684 28.5791 81.4485 28.6717 81.7758 28.2882C81.9444 28.4403 81.9841 28.3477 81.6469 28.7147ZM87.7394 26.9887C87.6568 27.1242 87.7428 27.1011 87.3295 27.0846C87.4122 26.7572 87.1246 26.6382 87.7394 26.9887ZM87.5378 25.4875C87.2502 25.5404 87.0353 25.5767 86.7477 25.6296C86.9769 25.2836 87.2403 25.2362 87.5378 25.4875ZM87.3989 24.846C87.3989 24.7005 87.3989 24.5781 87.4023 24.2839C87.67 24.4955 87.7923 24.5881 87.9741 24.7336C87.7394 24.7798 87.5973 24.8063 87.3956 24.846H87.3989ZM87.3229 27.1011C87.1279 27.5078 87.1213 27.5111 86.6651 27.3292C87.1213 27.1705 87.2766 27.1209 87.3229 27.1011ZM96.2948 38.1584C94.956 36.8358 93.6204 35.5296 92.2882 34.2401C92.4138 33.8896 92.5427 33.5457 92.6684 33.1952C92.6452 33.1819 92.6353 33.1786 92.6056 33.1654C92.6783 33.0629 92.7113 33.0166 92.7411 32.9902C93.0551 32.1238 93.3692 31.2542 93.6865 30.3945C95.3758 30.0407 97.0783 29.7464 98.7874 29.4951C99.1973 29.4356 99.6039 29.3628 100.014 29.3066C99.1312 31.3468 98.2584 33.4266 97.3857 35.5197C97.0221 36.396 96.6551 37.2689 96.2915 38.1551L96.2948 38.1584ZM95.908 38.1782C95.6403 38.4461 95.6799 38.3965 95.5642 38.2477C95.6502 38.1915 95.7394 38.1353 95.8287 38.0857C95.8353 38.0824 95.9113 38.1749 95.908 38.1815V38.1782ZM97.6171 28.718C97.8287 28.6354 98.037 28.5494 98.3444 28.427C98.3642 28.7346 98.3741 28.8668 98.3874 29.0784C97.5841 28.9759 97.8056 29.052 97.6171 28.7147V28.718ZM92.6221 26.0463C92.3973 26.1521 92.1626 26.2579 91.9179 26.3703C91.8452 26.4034 91.7791 26.4332 91.7031 26.4695C91.6766 26.3902 91.6469 26.3009 91.6204 26.2182C91.4717 26.1356 91.3163 26.0661 91.1675 25.9835C91.0056 26.0264 90.8568 26.0661 90.6981 26.1058C90.7146 25.9901 90.7279 25.8843 90.7444 25.7652C90.47 25.623 90.1956 25.4775 89.918 25.3387C89.9047 25.3651 89.8948 25.3982 89.8816 25.4213C89.5642 25.8975 90.7378 26.0562 88.8469 25.7983C88.6287 25.137 89.0155 25.1568 89.3494 25.0477C89.5444 24.9849 89.7196 24.8724 89.756 24.5616C89.7494 24.5583 89.7394 24.555 89.7328 24.5517C88.027 24.5054 88.3808 24.6211 88.027 24.0821C88.3312 23.768 88.3841 24.102 88.5196 24.2045C88.589 24.1615 88.6518 24.1218 88.7213 24.0821C88.7973 24.0359 88.8766 23.9863 88.9461 23.9433C89.2998 24.1119 89.7626 24.2012 89.9444 24.4624C89.9874 24.5219 90.0105 24.6013 90.0237 24.6873C90.6816 25.008 91.3328 25.3453 91.9742 25.6991C92.2584 25.795 92.5295 25.8843 92.7874 25.9702C92.7312 25.9967 92.675 26.0231 92.6221 26.0463ZM90.8403 27.4152C90.8403 27.4152 90.7312 27.445 90.7279 27.4417C90.5989 27.1275 90.6188 27.1804 90.8006 27.1275C90.8138 27.2234 90.8304 27.3193 90.8403 27.4152ZM91.9708 27.6136C92.275 27.8583 92.589 27.9806 92.4733 28.3477C92.4601 28.394 92.4634 28.427 92.437 28.4799C92.3775 28.4568 92.3378 28.4237 92.2915 28.394C92.0436 28.2353 91.9775 27.9906 91.9708 27.6103V27.6136ZM91.9146 32.9637C91.9146 32.9637 91.8849 33.0761 91.8717 33.0761C91.7527 33.0695 91.6337 33.053 91.5146 33.0398C91.6006 32.8314 91.5312 32.8215 91.9113 32.9637H91.9146ZM89.7791 31.2575C89.9598 31.4184 89.9047 31.6245 89.6138 31.8758C89.6965 31.5749 89.7361 31.4228 89.7791 31.2575ZM89.6138 30.702C89.713 30.3482 89.6568 30.4044 89.8419 30.4209C89.7097 30.7847 89.7692 30.7384 89.6138 30.702ZM82.6287 33.0199C82.4304 33.463 82.513 33.4035 82.275 33.3374C82.3841 32.8877 82.2981 32.9472 82.6287 33.0199ZM83.9014 42.1164C83.7923 41.9544 83.9576 41.7758 84.2221 41.7593C84.3213 41.9346 84.4204 42.1065 84.6022 42.4206C84.2783 42.2884 83.9973 42.2586 83.9014 42.1164ZM83.9775 47.3872C83.9345 47.4037 83.8551 47.4401 83.8518 47.4334C83.6006 47.0664 83.6469 47.1259 83.832 47.0565C83.8816 47.1656 83.9279 47.278 83.9775 47.3872ZM84.4039 38.3799L84.4171 38.37C84.4171 38.37 84.4105 38.3799 84.4072 38.3833C84.7312 38.7503 84.8039 38.8396 84.8237 38.8561C84.6022 38.8759 84.3808 38.8958 83.9808 38.9321C84.1989 38.6544 84.3047 38.5155 84.4105 38.3833L84.4039 38.3799ZM84.4568 41.5543C84.5791 41.2468 84.7014 40.9393 84.8634 40.5226C85.0254 40.7508 85.1543 40.9327 85.2733 41.1013C85.0353 41.5245 84.7631 41.6755 84.4568 41.5543ZM85.4882 41.9246C85.2832 42.09 85.1146 42.0635 84.9824 41.8453C85.1874 41.8783 85.3361 41.9015 85.4882 41.9246ZM84.5923 40.2548C84.5923 40.2548 84.5626 40.225 84.5494 40.2118C84.6221 40.2713 84.5163 40.3375 84.2783 40.5855C84.2353 40.3771 84.2122 40.2548 84.1725 40.0597C84.3708 40.1325 84.4899 40.1688 84.5427 40.2052C84.5394 40.2019 84.5328 40.1953 84.5295 40.192C84.6089 39.7224 84.7576 39.5637 85.1675 39.5042C85.1675 39.5042 85.1675 39.4976 85.1741 39.4943C85.1741 39.4976 85.1775 39.4976 85.1808 39.5042C85.2072 39.5042 85.2998 39.4877 85.6502 39.4414C85.6403 39.5836 85.6303 39.729 85.6204 39.8712C85.4254 40.1358 85.7064 40.0399 84.589 40.2614L84.5923 40.2548ZM84.8535 38.8594C85.0651 38.7834 85.2766 38.704 85.6138 38.5816C85.2535 39.1438 84.9361 38.8693 84.8535 38.8594ZM84.8998 37.5698C84.956 37.8145 84.8237 37.8972 84.4932 37.8906C84.6717 37.6326 84.718 37.5467 84.7576 37.5301C84.3312 37.3979 84.0832 37.5103 84.0171 37.1532C84.0138 37.1334 83.7725 37.1631 83.5907 37.1697C83.7163 36.8787 83.8386 36.601 84.0072 36.2141C84.5494 36.6241 85.0584 37.0077 85.5741 37.4012C85.4518 37.8377 85.1246 37.5169 84.8965 37.5698H84.8998ZM84.4006 38.3733C83.9444 38.4891 83.7494 38.2212 83.5047 37.8674C84.4072 37.8211 84.3378 38.3469 84.4006 38.3733ZM83.8651 39.6265C83.3659 40.268 83.0221 41.0616 82.027 41.2402C81.8254 41.2765 81.6237 41.3824 81.4915 41.0748C81.7791 41.012 81.9345 40.6317 82.3345 40.8335C82.3841 40.8599 82.6254 40.7045 82.6485 40.6086C82.6717 40.5226 82.5394 40.3474 82.4337 40.3176C82.2717 40.2746 82.0733 40.3242 81.2337 40.4763C81.1345 40.0862 81.3295 39.9539 81.5841 39.8547C81.5543 39.7456 81.5246 39.6332 81.4981 39.524C81.0463 39.6276 80.7455 39.912 80.5956 40.3771C80.2882 40.4896 79.9841 40.5987 79.6171 40.7309C79.6502 40.5425 79.6304 40.3474 79.7163 40.1986C80.1527 39.4414 80.0865 39.1768 79.3064 38.8792C81.2535 37.7385 81.9808 39.7257 81.3394 38.5122C81.5279 38.4494 81.7031 38.3932 81.8981 38.3303C82.0535 38.6742 82.1923 38.9851 82.3312 39.2959C83.0089 38.9255 83.3196 38.9917 83.8651 39.6298V39.6265ZM83.2766 43.0059C83.313 43.492 83.3461 43.3366 83.0981 43.5779C82.8403 43.3101 82.9527 43.1778 83.2766 43.0059ZM82.0171 42.2057C82.3521 41.9015 82.6706 41.9191 82.9725 42.2586C82.6452 42.2388 82.3775 42.2255 82.0171 42.2057ZM80.0865 43.0158C80.0138 43.0687 79.9146 43.1415 79.7593 43.2506C79.6469 43.0919 79.594 42.9398 79.5609 42.8009C79.4386 42.2355 79.875 41.8949 79.9973 42.2586C80.1328 42.662 79.5113 42.6653 80.8039 42.3809C80.7874 42.7116 80.8171 43.029 80.7775 43.3432C80.7444 43.6176 80.6552 43.8921 80.4105 44.1665C80.07 43.5019 80.0667 43.6705 80.318 43.1216C80.2386 43.0853 80.1626 43.0456 80.0832 43.0125L80.0865 43.0158ZM80.8403 45.132C80.9725 45.2808 81.1378 45.3271 80.8634 45.5388C80.8403 45.5553 80.6948 45.4925 80.6981 45.4759C80.7113 45.3966 80.7576 45.3238 80.8403 45.132ZM80.7279 41.6502C81.1598 41.6744 81.4133 41.8717 81.4882 42.2421C80.913 42.2553 80.9031 42.2454 80.7279 41.6502ZM79.3857 43.1282C79.0618 43.0919 78.7841 43.0621 78.47 43.0257C78.5196 42.576 79.2998 42.4669 79.3857 43.1282ZM78.4535 42.3743C78.4039 42.414 78.3642 42.3843 78.189 42.2884C78.189 42.2884 78.189 42.2884 78.1923 42.2817C78.3246 42.09 78.2122 42.1164 78.6452 42.1528C78.5295 42.2784 78.4865 42.3413 78.4502 42.371L78.4535 42.3743ZM79.6304 33.7771C79.8452 33.5622 80.0667 33.592 80.3543 33.8532C80.1097 34.0119 79.9279 34.1276 79.756 34.2368C79.4849 34.1111 79.4618 33.9458 79.6304 33.7771ZM79.7461 32.6331C80.1361 32.8645 79.9775 33.01 79.6601 33.1952C79.5411 32.7389 79.5345 32.8877 79.7461 32.6331ZM81.0981 37.1929C80.9725 37.3218 80.8469 37.4541 80.6287 37.6789C80.5824 37.2425 80.7808 37.1697 81.0981 37.1929ZM81.0485 36.1744C81.2601 35.9231 81.3163 35.8603 81.3295 35.8405C81.5246 36.5712 81.6204 36.5018 81.0485 36.1744ZM82.7709 36.2538C82.4304 36.1711 82.4634 35.7843 82.4403 35.7016C82.794 35.7247 82.837 35.9297 82.7709 36.2538ZM82.4105 35.6983C82.0932 36.1314 81.6899 35.7313 81.3361 35.8272C81.3361 35.8272 81.3361 35.8305 81.3394 35.8339L81.3262 35.8272C81.3262 35.8272 81.3328 35.8272 81.3361 35.8272C81.1642 34.9907 79.8882 35.7776 80.0006 34.9841C80.0899 34.3426 81.4485 34.5674 82.4105 35.6983C82.4105 35.695 82.4171 35.6917 82.4204 35.6884L82.4105 35.7016V35.6983ZM79.1642 32.8976C78.9857 33.0067 78.8204 33.1059 78.6618 33.2018C78.4568 32.9813 78.405 32.7135 78.5064 32.3983C78.718 32.557 78.9097 32.7025 79.1675 32.8976H79.1642ZM76.8204 43.244C76.556 43.4589 76.632 43.4391 76.4832 43.2903C76.7477 43.0819 76.6717 43.0819 76.8204 43.244ZM75.5775 43.74C75.6932 43.4192 75.5444 43.492 76.1361 43.4589C76.1527 43.6937 76.2651 43.6275 75.5775 43.74ZM75.2601 42.7513C74.8832 42.996 74.9659 42.9794 74.87 42.8505C75.2436 42.6124 75.1609 42.6157 75.2601 42.7513ZM73.7791 42.3347C73.4981 42.4074 73.27 42.4669 72.9659 42.5496C73.108 42.2156 73.2568 41.9974 73.6204 42.0404C73.6832 42.047 73.713 42.209 73.7791 42.338V42.3347ZM72.2585 42.338C72.1593 41.8651 72.1097 41.961 72.4304 41.885C72.5527 42.3512 72.6023 42.2586 72.2585 42.338ZM72.47 42.6653C72.4138 42.8802 72.4799 42.8472 72.156 42.781C72.2056 42.6322 72.1262 42.6587 72.47 42.6653ZM69.2469 31.4757C68.9923 31.2972 69.0254 31.403 69.151 31.0657C69.4882 31.2608 69.4783 31.1484 69.2469 31.4757ZM74.0138 49.8605C73.9477 50.006 73.9213 50.0622 73.8948 50.1217C73.8287 50.0787 73.7494 50.049 73.7097 49.9895C73.6932 49.9663 73.7593 49.8605 73.8089 49.8407C73.8651 49.8175 73.9444 49.8506 74.0171 49.8605H74.0138ZM72.1494 52.1884C73.2138 51.7717 74.2783 51.3617 75.3461 50.9583C75.2337 50.3697 75.1213 49.7778 75.0056 49.1893C76.8998 48.475 78.7973 47.7806 80.7014 47.1193C81.0386 48.8851 81.3791 50.6475 81.7163 52.4132C78.7378 53.4482 75.7791 54.5592 72.8237 55.7132C72.5989 54.5394 72.3742 53.3622 72.1461 52.1884H72.1494ZM86.7477 41.7163C86.2056 41.7494 86.2882 41.8486 86.3741 41.3394C86.8634 41.6337 86.7907 41.5477 86.7477 41.7163ZM86.7874 42.2355C86.4899 42.2884 86.6386 42.3677 86.2287 41.9974C86.6651 41.8321 86.7477 41.9775 86.7874 42.2355ZM86.2816 41.1873C86.2188 41.2104 86.0865 41.174 86.0502 41.1244C86.0171 41.0781 86.0733 40.9789 86.1031 40.8533C86.2353 40.9128 86.3477 40.9293 86.3841 40.9856C86.4072 41.0252 86.3411 41.1641 86.2849 41.1873H86.2816ZM88.0799 40.4003C88.0799 40.4003 88.0601 40.4003 88.0469 40.4069C87.8386 40.678 87.518 40.7442 86.9031 40.6516C87.1444 40.0266 87.194 39.8778 87.7494 40.02C87.7593 39.9837 87.7626 39.9638 87.7725 39.9208C87.8056 39.9704 87.8254 40.0035 87.8518 40.0465C87.951 40.0762 88.0634 40.1093 88.1956 40.1523C88.1593 40.2449 88.113 40.311 88.0634 40.3771C88.07 40.3838 88.0733 40.3937 88.0799 40.4036V40.4003ZM93.4651 49.6357C93.8452 50.3499 93.8485 50.4061 93.4551 50.9517C93.227 50.1647 93.3295 50.4524 93.0254 49.8704C93.1642 49.7977 93.3163 49.7183 93.4651 49.639V49.6357ZM93.2766 49.0669C93.5808 48.9016 93.8155 48.7726 94.1163 48.6073C94.0932 48.766 94.1262 48.9347 94.0502 48.9975C93.8485 49.1727 93.6006 49.2885 93.2733 49.0669H93.2766ZM105.164 37.7153C105.26 37.626 105.349 37.5202 105.425 37.3847C105.475 37.6062 105.412 37.7682 105.306 37.9038C105.101 38.1716 104.711 38.3469 104.566 38.6709C104.992 38.8396 105.134 38.4395 105.396 38.3303C105.504 38.5309 105.393 38.8164 105.065 39.1868C104.586 39.2 104.222 39.0313 104.087 38.6544C103.653 38.7073 103.263 38.7569 102.811 38.8131C102.817 38.5949 102.82 38.4428 102.824 38.2642C102.586 38.0691 102.087 38.3436 101.951 37.917C101.858 37.626 101.488 37.4078 101.753 36.9779C102.12 37.2524 102.424 37.6161 102.827 37.7451C103.211 37.8707 103.696 37.7517 104.179 37.7418C104.249 37.4144 104.288 37.2326 104.338 37.0077C104.427 37.0011 104.516 36.9945 104.609 36.9879C104.675 36.9812 104.741 36.9779 104.82 36.9713C104.811 37.0474 104.787 37.1102 104.768 37.1796C104.906 37.3516 105.029 37.5368 105.168 37.712L105.164 37.7153ZM103.158 43.5449C103.045 43.7995 102.943 44.0276 102.781 44.3881C102.579 44.0475 102.457 43.8392 102.325 43.6143C102.556 43.4192 102.817 43.3564 103.158 43.5449ZM102.658 41.5378C102.811 41.3691 102.721 41.3592 103.006 41.4915C102.834 41.7395 102.913 41.7163 102.658 41.5378ZM104.682 33.8036C104.444 34.0847 104.315 34.2368 104.103 34.4914C104.047 34.0648 104.093 33.8499 104.682 33.8036ZM101.994 29.0322C101.958 29.0751 101.921 29.0983 101.885 29.1181C101.561 29.3 101.28 28.6783 100.959 29.1545C100.801 28.7941 100.807 28.5527 101.035 28.3973C101.105 28.351 101.191 28.3113 101.303 28.2782C101.528 28.5229 101.759 28.7742 101.994 29.0288V29.0322ZM102.705 48.9016C102.698 49.3612 102.92 49.2157 101.888 49.4902C102.51 48.766 102.298 48.938 102.705 48.9016ZM102.913 49.0074C102.953 49.5034 102.996 49.4174 102.758 49.4439C102.701 48.928 102.658 49.014 102.913 49.0074ZM102.49 48.1576C102.88 47.8302 103.27 47.5029 103.647 47.1855C103.832 47.741 103.498 48.0419 102.49 48.1576ZM105.039 43.7763C105.323 43.611 105.386 43.4159 105.435 43.1448C105.468 42.9629 105.584 42.791 105.687 42.6157C105.706 42.5826 105.726 42.5496 105.746 42.5132C105.815 42.5165 105.852 42.543 105.901 42.5562C106.295 42.6653 106.252 43.0158 106.414 43.1811C106.715 43.482 106.582 43.7565 106.523 44.0673C106.705 44.1566 106.857 44.2293 107.052 44.3252C107.511 43.9053 107.911 43.3564 108.668 43.4093C108.711 43.1051 108.748 42.8538 108.781 42.619C109.088 42.4967 109.353 42.3909 109.706 42.2487C109.627 43.0555 109.333 43.1315 110.034 43.2936C110.444 43.3895 110.424 43.6375 110.311 43.9813C109.951 43.988 109.604 43.9913 109.26 43.9979C108.688 44.3385 108.996 44.9502 108.715 45.423C108.404 45.304 108.153 45.0758 107.796 45.2841C107.687 45.347 107.372 45.304 107.33 45.2246C106.956 44.517 106.401 45.39 105.687 44.8014C105.439 44.5964 105.032 44.5567 104.639 44.4277C104.553 44.15 104.791 43.9185 105.032 43.7763H105.039ZM107.356 42.5496C107.472 42.7116 107.802 42.8273 107.458 43.1018C107.085 42.8604 107.419 42.5694 107.356 42.5496ZM110.804 49.5365C111.435 49.5398 111.326 49.4902 111.336 49.7315C110.718 49.8043 110.824 49.8572 110.804 49.5365ZM111.151 50.1184C111.108 50.3168 111.065 50.5119 111.022 50.7202C110.788 50.6122 110.831 50.4116 111.151 50.1184ZM110.794 43.9417C110.361 43.6838 110.632 43.4589 110.754 43.1613C110.939 43.2671 111.058 43.3366 111.224 43.4291C111.065 43.6176 110.933 43.773 110.794 43.9417ZM110.007 45.0692C110.06 44.7353 110.1 44.4674 110.146 44.1533C110.734 44.5269 110.708 44.7088 110.007 45.0692ZM107.968 49.2025C108.143 48.8619 108.067 48.9049 108.285 48.9809C108.123 49.3248 108.199 49.262 107.968 49.2025ZM107.878 47.6219C107.934 47.5095 108.024 47.4368 108.116 47.3905C108.03 47.3177 108.083 47.321 108.179 47.1755C108.338 47.2681 108.411 47.2946 108.414 47.3276C108.678 47.3508 108.87 47.5624 108.569 47.8798C108.321 47.7873 108.103 47.7079 107.875 47.6219H107.878ZM108.652 47.1359C108.83 46.9077 108.992 46.9209 109.22 47.0565C109.035 47.3276 108.873 47.3144 108.652 47.1359ZM109.207 46.5274C109.257 46.0348 109.366 45.8198 109.885 46.1306C109.693 46.2431 109.505 46.3522 109.207 46.5274ZM109.442 44.6857C109.617 45.056 109.62 44.9799 109.462 45.0527C109.273 44.6923 109.27 44.7683 109.442 44.6857ZM105.366 46.1373C105.326 46.1306 105.283 46.124 105.244 46.1141C105.283 45.7801 105.24 45.9025 105.475 45.6776C105.501 46.0513 105.531 45.9356 105.366 46.134V46.1373ZM111.591 45.7603C111.885 46.048 112.093 46.2497 112.354 46.5043C112.189 46.5836 112.053 46.6465 111.918 46.7126C111.531 46.5241 111.604 46.1968 111.587 45.7603H111.591ZM113.462 48.7792C113.667 49.0868 113.568 49.3149 113.349 49.5166C113.151 49.4439 113.151 49.5861 113.462 48.7792ZM114.906 48.2866C115.22 48.0485 115.439 47.8831 115.779 47.6252C115.574 48.2899 115.564 48.2965 114.906 48.2866ZM115.693 50.1449C115.667 49.844 115.809 49.6588 116.087 49.6191C116.209 49.5993 116.351 49.7249 116.539 49.8076C116.255 50.0754 116.063 50.2871 115.696 50.1449H115.693ZM117.316 49.5629C116.88 49.2686 116.93 49.3513 117.002 49.2091C117.402 49.3215 117.283 49.2653 117.409 49.4935C117.379 49.5166 117.346 49.5398 117.316 49.5629ZM116.632 48.5808C116.768 48.3461 116.85 48.2039 116.972 47.9956C117.105 48.1609 117.184 48.2601 117.343 48.4585C117.062 48.5081 116.91 48.5346 116.632 48.5808ZM116.807 44.1698C117.049 43.9417 117.171 43.6672 116.92 43.3432C117.786 43.5052 117.852 43.5945 117.667 44.2889C118.222 44.0276 117.981 44.1103 118.609 44.0144C118.417 44.1996 118.338 44.2756 118.222 44.3848C118.738 45.2246 117.723 45.3139 117.657 45.5851C117.534 46.081 116.906 45.8033 116.698 46.1604C115.055 45.4131 115.991 46.0612 117.058 45.2379C116.88 45.0957 116.701 44.9535 116.503 44.8014C116.718 44.6658 116.903 44.5468 117.191 44.3649C116.999 44.269 116.933 44.236 116.807 44.1731V44.1698ZM115.769 25.5668C115.31 25.4081 115.518 25.1303 115.462 24.8328C115.934 24.9815 115.911 25.2196 115.769 25.5668ZM114.936 46.9937C115.799 46.8052 115.855 47.364 115.67 47.4963C115.439 47.6616 115.283 47.3905 114.923 46.9871L114.936 46.9937ZM114.774 47.5393C114.695 47.5062 114.563 47.4897 114.539 47.4334C114.437 47.1689 114.748 47.1623 114.87 47.0334C115.025 46.8746 114.867 47.2615 114.771 47.5393H114.774ZM114.738 25.3651C114.649 25.5139 114.543 25.6859 114.453 25.8313C113.944 25.828 113.449 25.8247 112.91 25.8181C112.963 25.2031 114.364 25.3585 114.738 25.3651ZM113.082 49.9399C113.144 50.125 113.224 50.0457 112.635 50.2738C112.698 49.9035 112.91 49.9564 113.082 49.9399ZM112.46 49.057C112.275 48.8784 111.858 48.7495 112.245 48.108C112.298 48.022 112.523 48.022 112.672 47.9823C112.453 48.3659 112.999 48.7693 112.46 49.0537V49.057ZM112.566 45.0758C112.414 45.0295 112.427 45.1089 112.483 44.7452C112.645 44.7683 112.619 44.6989 112.566 45.0758ZM112.139 43.4093C112.222 43.3729 112.354 43.4424 112.467 43.4655C112.417 43.5812 112.368 43.7003 112.295 43.8755C112.149 43.7896 111.991 43.7466 111.987 43.6838C111.981 43.5945 112.057 43.4457 112.139 43.4093ZM111.872 42.209C111.128 42.2817 111.019 42.209 110.754 41.3625C110.88 41.4485 111.032 41.6337 111.131 41.6072C111.736 41.4551 111.815 41.8221 111.872 42.209ZM111.687 41.0947C111.63 41.0848 111.601 41.0781 111.554 41.0682C111.052 40.9789 111.035 40.9227 111.201 40.3738C111.346 40.5888 111.478 40.7839 111.653 41.0418C111.667 41.0616 111.677 41.0748 111.69 41.0947H111.687ZM110.933 26.7837C111.035 26.8663 111.121 26.9655 111.211 27.0614C111.138 27.1176 111.062 27.1738 110.989 27.23C110.913 27.1176 110.83 27.0052 110.768 26.8895C110.764 26.8829 110.92 26.7737 110.933 26.7837ZM110.672 34.9179C110.93 34.7691 110.893 34.7823 110.959 34.9675C110.863 34.994 110.804 35.0105 110.751 35.0237C110.543 35.0833 110.576 35.0733 110.536 34.994C110.599 34.9609 110.632 34.9411 110.675 34.9179H110.672ZM110.477 42.3975C109.696 42.9761 109.558 43.2076 109.753 42.4008C110.526 42.2718 110.411 42.2619 110.477 42.3975ZM109.832 34.3558C109.971 34.4947 110.113 34.6369 110.278 34.8022C110.047 34.9841 109.815 35.1659 109.581 35.3478C109.371 35.0061 109.455 34.6754 109.832 34.3558ZM109.088 41.5543C109.029 41.6171 108.982 41.6932 108.93 41.7593C108.754 41.9875 108.599 42.2355 108.397 42.5231C107.568 42.543 107.389 42.5463 107.363 42.5496C107.244 42.4438 107.075 42.3677 106.93 42.2884C106.629 42.1197 106.463 41.9379 107.253 41.4551C107.515 41.2964 107.759 41.0385 108.189 41.0914C108.457 41.1244 108.777 40.883 109.088 40.7607C109.343 41.0153 109.372 41.2501 109.088 41.5543ZM108.04 39.61C108.04 39.61 108.04 39.61 108.044 39.61C108.044 39.61 108.044 39.61 108.04 39.61H108.034C108.146 39.9142 108.206 40.0829 108.196 40.149C108.285 40.063 108.526 40.0366 109.191 39.8911C108.972 40.3738 108.496 40.2978 108.143 40.559C108.146 40.3606 108.126 40.2548 108.163 40.1854C108.087 40.1854 107.875 40.0167 107.498 39.7555C107.921 39.6431 108.017 39.6199 108.034 39.6133C108.034 39.6133 108.034 39.61 108.034 39.6067C107.974 39.5802 107.905 39.5538 107.835 39.5273C107.72 39.481 107.584 39.4248 107.386 39.3422C107.743 39.2694 107.918 39.2331 108.189 39.1801C108.139 39.3124 108.106 39.3984 108.083 39.4612C108.044 39.5703 108.034 39.6001 108.034 39.6067C108.04 39.6067 108.044 39.61 108.04 39.6133V39.61ZM109.201 38.8528C108.612 38.9884 108.301 38.6279 107.901 38.4692C107.941 38.2477 107.749 38.327 109.138 38.1584C109.161 38.4031 109.181 38.618 109.204 38.8528H109.201ZM108.89 29.5777C108.718 29.796 108.801 29.7761 108.563 29.6935C108.695 29.4653 108.625 29.5182 108.89 29.5777ZM108.87 31.2773C108.923 31.4328 108.9 31.4493 108.434 31.7039C108.361 31.4294 108.305 31.2112 108.235 30.9566C108.599 30.8706 108.777 31.0128 108.87 31.2773ZM107.399 34.8551C107.475 34.6534 107.581 34.8154 108.179 34.7195C108.397 34.6832 108.606 34.5873 108.883 34.498C108.701 35.1262 108.682 35.4834 108.149 35.4271C108.067 35.4172 107.974 35.447 107.885 35.4668C107.687 35.5098 107.475 35.5859 107.214 35.652C107.32 35.1957 107.353 34.9708 107.396 34.8551H107.399ZM107.323 36.0455C107.472 36.0686 108.467 36.0521 108.249 36.8159C108.169 37.097 107.759 37.2193 107.634 37.0375C107.458 36.7862 107.323 36.5051 107.174 36.2373C107.224 36.1744 107.273 36.1083 107.323 36.0422V36.0455ZM107.168 40.8467C106.715 40.9095 106.665 40.7045 106.668 40.311C107.029 40.516 106.9 40.3573 107.168 40.8467ZM106.86 23.9664C106.844 24.3665 106.877 24.3004 106.731 24.3037C106.721 23.9102 106.678 23.9697 106.86 23.9664ZM105.029 36.5316C105.082 36.4819 105.158 36.4158 105.26 36.3133C105.594 35.9727 105.577 35.9926 105.991 36.2869C106.182 36.4224 106.453 36.4687 106.728 36.5679C106.222 37.1929 105.776 36.6837 105.28 36.6572C105.31 36.763 105.326 36.8325 105.346 36.8953C105.409 37.1234 105.399 37.0937 105.306 37.13C104.943 36.6837 104.863 36.6903 105.032 36.5316H105.029ZM102.394 19.4066C102.533 19.5455 102.672 19.6844 102.834 19.8497C102.602 20.0282 102.374 20.2068 102.146 20.3887C101.939 20.0492 102.022 19.7229 102.394 19.4099V19.4066ZM83.4717 4.32844C83.8155 4.6062 83.7824 4.76491 83.5841 4.89057C83.5312 4.92363 83.4188 4.87073 83.3361 4.8575C83.3725 4.71532 83.4089 4.56983 83.4717 4.33175V4.32844ZM77.9609 3.96141C77.5951 3.99007 77.3945 3.76742 77.3593 3.29347C77.7758 3.39928 78.0039 3.58115 77.9609 3.96141ZM32.751 12.1552C32.6948 12.423 32.87 12.38 31.8254 12.2346C32.1626 11.9799 32.4667 11.9799 32.751 12.1552ZM26.1494 19.1718C26.4039 18.9437 26.589 19.0131 26.8502 19.4C26.0006 19.3603 26.1328 19.4264 26.1494 19.1718ZM16.87 44.1533C19.032 25.4842 32.308 9.11642 51.5444 4.04738C61.6766 1.37894 71.9213 2.24858 80.9659 5.88916C80.956 5.8561 80.9427 5.83295 80.9328 5.79658C81.2072 5.69077 81.432 5.56181 81.67 5.52874C82.4634 5.42293 82.5031 6.04127 82.1494 6.38185C86.318 8.19057 90.2122 10.6011 93.7031 13.5241C93.7725 13.4778 93.8551 13.4382 93.9675 13.4084C94.189 13.6498 94.4171 13.8978 94.6518 14.1491C94.6155 14.1921 94.5791 14.2152 94.5427 14.2351C96.5064 15.9611 98.3279 17.8591 99.994 19.9026C100.07 19.7009 100.176 19.8629 100.764 19.767C100.979 19.7306 101.184 19.6381 101.462 19.5455C101.28 20.1671 101.26 20.5209 100.738 20.4614C100.658 20.4515 100.566 20.4812 100.477 20.5011C100.751 20.8483 101.019 21.2021 101.28 21.5592C100.179 21.665 99.0816 21.7973 97.9907 21.9527C97.9808 21.9395 97.9708 21.9262 97.9609 21.913C97.9642 21.9295 97.9675 21.9428 97.9741 21.956C97.9113 21.9659 97.8485 21.9758 97.789 21.9825C97.551 21.7047 97.5113 21.6882 97.6535 21.5526C94.2122 17.3565 90.0469 13.8515 85.3923 11.1897C85.1708 11.2922 84.9394 11.398 84.6981 11.5104C89.4684 14.1722 93.7394 17.7235 97.2403 22.0056C97.3064 21.999 97.3725 21.9957 97.4518 21.9891C97.4518 22.0023 97.4452 22.0155 97.4419 22.0287C86.1527 23.6953 75.313 27.7029 64.5262 31.9982C64.6485 32.0346 64.7609 32.0709 64.8932 32.1139C64.1428 32.676 64.3378 32.3784 64.1494 33.2382C63.7394 33.1456 63.3659 32.8579 62.9394 33.4696C62.9328 33.1224 62.8634 32.9373 62.9394 32.848C63.0221 32.7455 63.0981 32.643 63.1675 32.5405C58.7907 34.293 54.4204 36.0719 50.0337 37.755C50.0502 38.0526 49.9147 38.4229 49.6667 38.661C49.6105 38.6379 49.5543 38.6147 49.5014 38.5949C49.7064 38.1286 49.789 38.0559 49.7064 37.884C47.2932 38.8032 44.8766 39.6894 42.4469 40.5226C42.427 40.6086 42.3576 40.678 42.1857 40.7045C42.1791 40.678 42.1725 40.6483 42.1626 40.6218C39.8188 41.422 37.4651 42.1627 35.0981 42.8373C35.1378 42.9265 35.1742 43.0059 35.227 43.1315C34.8667 43.1745 34.5328 43.2142 34.1064 43.2638C34.113 43.2076 34.1196 43.1613 34.1262 43.1117C33.7824 43.2076 33.4386 43.2903 33.0948 43.3828C33.0618 43.568 33.0816 43.7168 33.4221 43.7565C33.5146 43.7664 33.5973 43.8094 33.6832 43.8392C33.9014 43.9185 34.1097 44.0243 34.308 44.107C33.9312 44.3748 33.5146 44.5931 33.0056 44.2459C32.8799 44.1599 32.6353 44.2128 32.4469 44.2029C32.4469 44.1864 32.4469 44.1797 32.4436 44.1665C32.427 44.0276 32.394 44.0673 32.8899 43.8623C32.827 43.74 32.7642 43.6176 32.6948 43.4854C28.87 44.4873 25.0056 45.2742 21.0849 45.7768C21.1312 45.6446 21.1808 45.5123 21.237 45.38L20.1824 45.6578C20.3246 44.0839 20.5791 42.5364 20.8866 40.9988C20.8535 40.7872 20.7378 40.6251 20.5064 40.311C20.7047 40.3209 20.8634 40.3275 21.0254 40.3375C23.6601 28.2088 31.3989 17.5384 42.4932 11.4079C42.4171 11.3881 42.2981 11.3881 42.0204 11.3715C42.0899 11.1665 42.1394 11.0045 42.189 10.8623C39.9775 12.0858 37.908 13.4944 35.9708 15.0518C35.9477 15.0815 35.9146 15.1212 35.8651 15.194C35.8485 15.1807 35.8452 15.1774 35.832 15.1675C26.5229 22.7066 20.5626 33.8036 19.5477 45.8264L18.7444 46.0381C18.0535 46.1042 17.3593 46.1637 16.6651 46.21C16.718 45.5619 16.794 44.9204 16.8667 44.2789C16.827 44.2591 16.8535 44.2326 16.8799 44.1533H16.87ZM16.6585 55.2668C16.5229 55.3792 16.3841 55.4884 16.1659 55.6669C16.0006 55.3462 15.9113 55.1709 15.7857 54.9229C16.3675 55.0023 16.156 54.8965 16.6585 55.2668ZM15.9874 54.2021C15.7295 54.3839 15.8353 54.3839 15.5775 54.2781C15.6899 54.093 15.5775 54.1029 15.9874 54.2021ZM15.3328 56.444C15.6304 56.4043 15.832 56.4836 16.0568 56.6854C16.2155 56.8275 16.7213 56.7085 16.8039 56.8507C17.1113 57.3698 17.2733 57.264 17.4089 57.393C17.5047 58.2891 16.5262 57.7369 16.3642 58.3684C16.3708 58.3684 16.3742 58.3684 16.3808 58.3717C16.4436 58.3552 16.6981 58.2791 17.6799 57.9915C18.275 57.5914 18.1527 57.6145 18.275 57.7964C17.6733 58.0741 17.7758 58.051 17.6799 57.9915C17.7758 58.0543 17.7394 58.137 17.6667 58.2362C17.7923 58.1502 17.9576 58.0807 18.2254 58.0278C18.1923 58.0708 18.0733 58.2725 17.5675 59.1025C17.4651 58.8148 17.4485 58.623 17.4915 58.4709C17.4122 58.5933 17.3626 58.7322 17.4254 58.8909C17.432 58.9074 17.1874 59.0165 17.0618 59.0826C17.0684 59.334 17.1014 59.5952 16.6419 59.7473C16.6188 59.4596 16.5989 59.2149 16.5725 58.8776C17.0849 59.0595 16.9659 59.0066 17.0651 59.0793C16.8899 58.9504 17.3064 58.547 16.3841 58.3684C16.3742 58.3684 16.3642 58.3717 16.3642 58.3684C16.3642 58.3684 16.3642 58.3684 16.3642 58.3618C16.3576 58.3453 16.2023 58.2692 14.7543 57.4856C14.9262 57.3037 15.0651 57.1516 15.313 56.8871C14.7246 56.9565 14.3213 56.8838 14.1626 56.3382C14.394 56.1794 14.6518 56.0009 14.9791 55.776C15.1642 56.2423 15.2204 56.4506 15.3328 56.4374V56.444ZM16.513 60.5475C16.6585 60.5607 16.7477 60.6698 16.8039 60.8517C16.7576 60.8748 16.7312 60.8682 16.6915 60.8781C16.7973 61.0468 16.8965 61.2088 17.0254 61.4105C16.1064 61.3609 15.9147 61.384 15.9113 61.2948C15.875 61.3708 15.7923 61.3543 15.3758 61.3741C15.5411 61.017 15.7361 60.9939 15.9742 61.0798C16.0932 61.0104 16.2155 60.9343 16.3477 60.855C16.2386 60.7624 16.2221 60.607 16.3213 60.5706C16.3808 60.5508 16.4337 60.5409 16.4799 60.5409C16.3708 60.5376 16.2518 60.5309 16.1163 60.5276C16.1626 60.1838 16.232 60.0085 16.4304 59.9655C16.437 59.9225 16.5064 59.9126 16.7675 59.8266C16.7874 59.9225 16.8072 59.9655 16.7973 59.992C16.9593 60.0316 17.1609 60.0978 17.4122 60.1904C17.4684 60.5971 17.313 60.5772 16.513 60.5409V60.5475ZM17.3626 62.0421C17.0915 62.0388 16.827 62.0321 16.5461 62.0288C16.5328 62.0288 16.5229 62.0288 16.5097 62.0288C16.4337 61.3874 17.3328 61.2121 17.3758 61.8106C17.3824 61.88 17.3824 61.9528 17.3626 62.0421ZM15.8981 59.3538C15.5742 59.982 15.4651 60.025 14.8667 59.7076C15.2204 59.4563 15.4618 59.1587 15.8981 59.3538ZM15.4221 58.8512C15.6469 58.8512 15.8948 58.7222 16.1824 59.0661C15.2799 58.9967 15.4155 59.0562 15.4221 58.8512ZM14.8965 62.3893C14.989 62.5678 15.0783 62.7431 15.227 63.0307C14.8733 62.9911 14.6915 62.9712 14.4601 62.9481C14.5461 62.5215 14.4039 62.6472 14.8965 62.3893ZM15.5378 66.5192C15.0551 66.6846 15.1411 66.6846 15.0948 66.5754C15.5609 66.3638 15.4684 66.3605 15.5378 66.5192ZM15.7725 63.163C16.2419 63.3912 16.318 63.6821 15.951 64.1385C15.389 63.411 15.4056 63.6292 15.7725 63.163ZM13.8023 66.258C13.6866 65.8777 13.8783 65.6529 14.2882 65.4247C14.3235 65.8281 14.1615 66.1059 13.8023 66.258ZM14.2551 68.0436C13.8089 68.0436 13.8816 68.0601 13.9312 67.8485C14.0436 67.8716 14.1593 67.8948 14.2684 67.9245C14.2783 67.9245 14.2585 68.0403 14.2551 68.0403V68.0436ZM13.6502 57.9716C13.8089 57.7798 13.9246 57.641 14.0932 57.4393C14.1626 57.6972 14.2089 57.8824 14.275 58.1303C14.0799 58.0807 13.8981 58.0345 13.6502 57.9716ZM14.1791 62.8654C13.8386 62.71 13.6766 62.548 13.7956 62.1776C14.1857 62.2801 14.2386 62.4984 14.1791 62.8654ZM13.6006 67.0615C13.3064 66.9094 13.2965 67.045 13.5808 66.4895C13.9113 66.6085 13.8948 66.4895 13.6006 67.0615ZM14.5758 54.8502C14.4039 55.0188 14.2882 55.1346 14.1361 55.2834C14.1009 55.0343 14.2474 54.8899 14.5758 54.8502ZM9.40886 52.066C9.72622 52.2016 9.66672 52.4397 9.66341 52.8166C9.313 52.5554 9.15762 52.3868 9.40886 52.066ZM9.90804 53.9541C9.64357 53.9607 9.47167 53.964 9.24688 53.9673C9.39234 53.0481 9.32291 53.0315 9.90804 53.9541ZM8.94936 74.3625C9.35928 74.379 9.57415 74.5113 9.56754 74.9478C9.04523 74.9577 8.89977 74.7692 8.94936 74.3625ZM9.80556 57.8096C9.9411 57.2243 10.0039 56.94 9.96754 56.7151C9.93448 56.5002 9.81548 56.3382 9.58077 56.0207C9.78242 56.0306 9.9411 56.0373 10.1064 56.0472C10.1692 56.0472 10.232 56.0538 10.3014 56.0571C10.3808 55.9116 10.4766 55.7397 10.6386 55.4487C10.6948 55.8918 10.7973 56.1794 10.4866 56.4837C10.2188 56.7449 10.5758 57.6277 9.80556 57.8096ZM10.7973 65.4975C10.4568 65.3983 10.437 65.2296 10.6585 64.9717C10.9659 65.0875 10.9791 65.2561 10.7973 65.4975ZM12.589 59.1058C12.0105 58.9702 12.1031 58.5106 12.0072 58.1337C12.794 58.0245 12.8535 58.1237 12.589 59.1058ZM12.4502 60.6334C12.0072 60.5772 11.9742 60.025 12.4403 59.9887C12.589 60.0779 12.5097 59.9457 12.7543 60.4549C12.6485 60.521 12.5361 60.6434 12.4502 60.6301V60.6334ZM13.6634 57.3566C13.67 57.3401 13.6832 57.3301 13.6899 57.3103C13.6899 57.3103 13.6998 57.307 13.7031 57.3037C13.7196 56.9069 13.7262 56.9069 14.2948 57.0921C13.8353 57.2541 13.7262 57.2905 13.7031 57.3037C13.7031 57.3103 13.7031 57.3103 13.7031 57.3169C13.6965 57.3169 13.6899 57.3136 13.6899 57.3103C13.7361 57.3368 13.7196 57.3467 13.6601 57.3533C13.5147 57.6839 13.227 57.803 12.7609 57.8195C13.0221 57.3963 13.4981 57.3764 13.6601 57.3533L13.6634 57.3566ZM13.1146 76.8821C13.1047 76.4887 13.0618 76.5482 13.2436 76.5449C13.227 76.945 13.2601 76.8788 13.1146 76.8821ZM13.5113 76.2572C13.1609 76.0588 13.1742 76.1646 13.3262 75.8538C13.6469 75.9861 13.5708 75.9034 13.5113 76.2572ZM13.1742 71.5982C13.3923 71.0493 13.4221 70.7054 13.9312 70.9369C13.2304 71.7569 13.3692 71.6643 13.1742 71.5982ZM14.5229 69.0389C14.2188 68.6619 14.3378 68.8074 14.0932 68.5131C13.3989 68.6288 13.6436 68.6487 13.1841 68.275C14.1262 68.2387 14.1725 68.2519 14.8535 68.6189C14.8304 68.7843 14.9295 68.6718 14.5196 69.0389H14.5229ZM15.7031 69.7994C15.6866 70.0011 15.6733 70.13 15.6601 70.2954C14.5064 70.0441 14.6485 70.0771 15.7031 69.7994ZM15.5444 72.6431C15.7251 72.4491 15.9378 72.4844 16.1824 72.7489C15.9841 72.7158 15.7824 72.6827 15.5444 72.6431ZM16.1791 68.0105C16.1791 68.0105 16.1824 68.0171 16.189 68.0237C16.1857 68.0237 16.1824 68.0237 16.1791 68.0237C16.351 68.4073 16.437 68.3577 15.8056 68.2221C15.8023 68.0899 15.7394 68.1395 16.1791 68.0237C16.1791 68.0204 16.1791 68.0204 16.1758 68.0138C16.1758 68.0138 16.1758 68.0138 16.1824 68.0072C15.9775 67.7129 15.9907 67.7724 16.0469 67.6468C16.4733 67.8088 16.4634 67.7261 16.1824 68.0072L16.1791 68.0105ZM15.8684 66.8102C15.8485 66.7573 15.832 66.7044 15.8122 66.6515C16.4998 66.4366 16.3742 66.4333 16.4601 66.5787C16.1824 66.7904 16.3378 66.7474 15.8651 66.8102H15.8684ZM16.6684 63.9467C16.7907 64.1153 16.8469 64.0426 16.4667 64.2972C16.3312 64.1252 16.2981 64.2046 16.6684 63.9467ZM17.4122 64.5518C17.151 64.4625 17.1609 64.5319 17.3196 64.2707C17.551 64.3964 17.5047 64.3369 17.4122 64.5518ZM18.1361 68.2585C17.8585 68.2519 17.5808 68.2486 17.2436 68.2387C17.5191 67.9256 17.8166 67.9322 18.1361 68.2585ZM17.2237 65.438C17.0386 65.6132 16.8568 65.7852 16.6551 65.9769C16.6221 65.719 16.8116 65.5394 17.2237 65.438ZM17.508 74.1277C17.4816 73.9249 17.6215 73.8368 17.9279 73.8632C17.7956 73.9492 17.6601 74.0318 17.508 74.1277ZM17.3494 73.7343C17.032 73.7905 16.751 73.8632 16.6155 73.516C16.837 73.1523 17.1874 73.4333 17.4717 73.2912C17.7163 73.2019 17.5609 72.5439 18.1659 72.8349C18.0667 73.2846 17.908 73.6351 17.3494 73.7343ZM18.6816 75.4239C19.1444 75.328 19.0618 75.3148 19.0882 75.4537C18.6386 75.5727 18.718 75.5959 18.6816 75.4239ZM18.7047 62.6869C18.6551 62.7298 18.6023 62.7695 18.5494 62.8125C18.6452 62.872 18.7378 62.9282 18.8667 63.0109C18.5791 63.2589 18.1527 63.3449 17.9411 63.5929C18.0204 63.6392 17.9907 63.6425 17.9213 63.7946C17.8882 63.778 17.8717 63.7714 17.8485 63.7615C17.8188 63.8442 17.8056 63.9401 17.8221 64.0591C17.4981 64.1285 17.227 64.1881 16.9824 64.241C16.8105 64.0591 16.5163 63.7847 16.5394 63.7582C16.6684 63.616 16.6816 63.4408 16.6816 63.2622C16.6254 63.2424 16.5758 63.2291 16.5163 63.2027C16.5328 63.001 16.5527 62.7629 16.5791 62.4686C16.7378 62.4951 16.8766 62.5182 17.0089 62.5248C17.0254 62.5149 17.0386 62.5017 17.0585 62.4918C17.0585 62.505 17.0618 62.5149 17.0651 62.5281C17.237 62.5281 17.3923 62.4885 17.5477 62.3364C17.6304 62.2537 17.7989 62.2471 17.9742 62.2438C17.9841 62.128 17.994 61.9892 18.0072 61.8139C18.0304 61.7842 18.0634 61.7544 18.0932 61.7246C18.0568 61.6982 18.0171 61.675 17.9841 61.6486C17.9411 61.6122 17.9014 61.5725 17.8783 61.5229C17.9279 61.1228 17.9808 60.7128 18.0535 60.1375C18.3444 60.5177 18.4766 60.8881 18.6585 61.2022C18.7213 61.1063 18.7576 60.9939 18.7642 60.8616C18.7576 60.8484 18.7444 60.8418 18.7378 60.8285C18.4403 60.1242 18.8899 59.6911 18.9923 59.5125C19.1609 59.5026 19.3031 59.5092 19.4353 59.5224C19.4684 59.4629 19.5014 59.4067 19.5378 59.3439C18.9791 59.162 18.7642 59.4761 18.589 59.7572C18.2287 59.7076 17.8849 59.658 17.5411 59.6117C17.6381 59.2612 18.0381 59.1311 18.7411 59.2215C18.8006 59.1058 18.794 59.0694 18.8568 59.0628C19.1113 58.7189 19.1742 58.6925 19.5675 58.6495C19.637 58.4412 19.7064 58.2262 19.789 57.9815C19.8155 57.8989 19.8386 57.8261 19.8717 57.7336C19.9708 57.9121 20.0237 58.0807 20.0535 58.2494C20.0667 58.3221 20.0601 58.3916 20.0634 58.461C20.1097 58.4246 20.156 58.3883 20.2089 58.3453C20.2386 58.4114 20.2651 58.461 20.2915 58.5205C20.3675 58.6792 20.437 58.828 20.5361 59.0397C20.3014 58.9471 20.156 58.9107 20.0535 58.8446C20.0171 59.1323 19.9477 59.41 19.8981 59.6845C20.2188 59.9258 20.1791 60.4218 19.7626 61.1857C19.7626 61.189 19.7593 61.1956 19.756 61.1989C19.7461 61.1989 19.7328 61.1989 19.7229 61.1989C19.594 61.179 19.4551 61.1757 19.3196 61.1691C19.2601 61.3444 19.2072 61.5064 19.1279 61.6486C19.1113 61.6783 19.0849 61.7081 19.0618 61.7379C19.3725 62.0553 19.6403 62.4091 19.9279 62.7464C19.5775 62.9271 19.1664 62.9117 18.6948 62.7001L18.7047 62.6869ZM20.0138 70.378C19.8849 70.0606 19.7989 69.849 19.7163 69.6407C20.0932 68.6123 21.3692 69.4059 20.8502 69.8291C20.6122 70.0242 20.3312 70.1763 20.0138 70.378ZM46.5659 94.2485C46.1626 94.222 46.0039 94.3907 46.1229 94.7544C46.2155 95.0388 46.1758 95.1313 45.8287 95.1677C45.7428 94.8437 45.7461 95.1677 45.8023 93.9806C46.2882 93.8484 46.7543 93.6797 47.2436 93.9145C47.1047 94.2551 46.8766 94.2716 46.5692 94.2485H46.5659ZM47.3461 95.1942C47.356 94.7643 47.3593 94.4965 47.3659 94.1427C47.7923 94.3014 48.0965 94.4138 48.5824 94.5957C48.1064 94.8271 47.8056 94.9726 47.3461 95.1975V95.1942ZM57.8023 97.1252C57.6766 97.1517 57.5279 97.0723 57.1808 96.9864C57.475 96.7946 57.6138 96.6524 57.7758 96.6094C58.1857 96.5036 58.3742 97.0095 57.8023 97.1252ZM58.8469 97.3765C58.7973 97.3997 58.5923 97.2707 58.6023 97.2377C58.7378 96.6822 58.8766 96.8905 59.2568 97.0327C59.0717 97.1947 58.9758 97.317 58.8469 97.3765ZM74.3708 96.616C74.2684 96.7417 74.3775 96.6755 73.9907 96.8739C73.9543 96.8012 73.8684 96.7152 73.8915 96.6623C74.0436 96.2688 74.275 96.5003 74.3973 96.5565L74.3742 96.616H74.3708ZM75.0188 96.778C74.0601 97.0856 74.2651 95.9382 75.2568 95.4356C75.1642 95.9613 75.0948 96.3548 75.0188 96.778ZM75.7494 96.5135C76.0337 96.3713 76.2551 96.4143 76.47 96.6987C76.113 96.8816 75.8728 96.8199 75.7494 96.5135ZM91.8948 88.1908C91.8783 88.0684 91.7494 88.1544 92.8039 87.7014C92.8403 87.7345 92.8733 87.7642 92.9097 87.7973C92.6155 88.3462 92.827 88.2503 91.8948 88.1908ZM93.1477 88.4057C93.3196 88.1103 93.5587 88.0067 93.8651 88.0949C93.6469 88.4013 93.4078 88.5049 93.1477 88.4057ZM99.4089 81.313C99.2337 81.237 99.1047 81.1807 98.8469 81.0683C99.3097 80.8732 99.432 80.946 99.4089 81.313ZM92.7213 86.2961C92.9097 86.4779 92.8337 86.4416 92.6684 86.63C92.5824 86.5639 92.5295 86.5275 92.4865 86.4912C88.1593 89.8937 83.1576 92.5555 77.637 94.2948C77.637 94.2981 77.6304 94.3014 77.6304 94.3047C77.4816 94.6155 77.1312 94.7643 76.7246 94.6916C76.6981 94.6585 76.675 94.632 76.6485 94.599C76.2585 94.7114 75.8816 94.8503 75.4882 94.9561C74.9989 95.0851 74.5097 95.1975 74.0237 95.3099C73.5708 95.6406 73.6271 95.7596 73.7262 96.5267C73.2568 96.7747 72.5857 96.4904 72.47 97.2641C72.2452 97.1153 72.308 97.2939 72.1824 96.1795C72.437 96.2589 72.589 96.3085 72.7874 96.368C72.9295 95.9018 72.9989 96.0109 72.4105 95.9249C72.394 95.8423 72.3742 95.7431 72.3576 95.6571C71.5113 95.8191 70.6618 95.9679 69.8155 96.0836C69.8353 96.1597 69.8452 96.2556 69.8353 96.3945C69.6204 96.2887 69.4783 96.2159 69.3394 96.1465C69.3394 96.1465 69.3394 96.1399 69.3428 96.1399C69.2204 96.1564 69.0948 96.1696 68.9725 96.1829C69.0254 96.2391 69.0717 96.3085 69.1014 96.3912C69.0353 96.4672 68.956 96.6193 68.827 96.6822C68.6056 96.7946 68.0469 96.6028 67.9808 96.411C67.9675 96.368 67.9742 96.335 67.9742 96.2986C67.5742 96.3383 67.1742 96.3614 66.7775 96.3879C66.8304 96.4573 66.8932 96.5565 66.9791 96.7053C66.837 96.9235 66.9791 96.9698 66.3113 96.4342C66.318 96.4275 66.3213 96.4275 66.3312 96.4209C58.318 96.9037 50.4866 95.2934 43.4882 91.9835C42.8105 92.0793 42.7609 92.0595 42.6981 91.6032C36.7014 88.6272 31.3527 84.3915 27.0717 79.1373C26.8502 79.1802 26.8832 79.1736 26.8601 78.9918C26.9031 78.9918 26.9196 78.9918 26.9527 78.9918C26.4865 78.4164 26.037 77.8311 25.5973 77.2293C26.6915 77.107 27.7791 76.9615 28.8634 76.7962C31.6337 80.3045 34.9031 83.3499 38.5394 85.8464C38.6353 85.7505 38.7742 85.6116 38.989 85.4C38.1229 84.8081 37.2799 84.1931 36.4568 83.5384C36.4304 83.5582 36.4072 83.5913 36.3841 83.5913C36.1923 83.6045 35.8485 83.3664 35.3527 83.0655C35.4651 82.9828 35.5708 82.9233 35.67 82.877C33.4485 81.0286 31.4089 78.9554 29.5775 76.6804C30.2882 76.5647 30.9956 76.4457 31.6998 76.3134C31.5907 76.0853 31.4783 75.8472 31.3692 75.6223C31.8618 75.2884 31.8419 75.8108 32.0998 75.91C32.4436 75.9563 32.751 75.5694 32.9626 75.9034C32.9923 75.953 32.9989 76.0158 32.9956 76.0819C34.1956 75.8406 35.3923 75.5727 36.5857 75.285C36.5857 74.8949 36.5626 74.4187 36.47 73.8202C36.0932 73.678 36.027 73.6648 36.0303 73.6417C36.0303 73.645 36.027 73.6483 36.0237 73.6516C35.832 73.721 35.6138 73.9591 35.4717 73.6317C35.3758 73.4069 35.1973 73.3672 34.989 73.4466C34.7642 73.5325 34.5791 73.6615 34.7113 73.9393C34.7411 74.0021 34.6783 74.1079 34.6386 74.2633C33.7394 73.8533 34.2122 73.9558 33.8419 74.5245C33.756 74.6535 33.6105 74.7527 33.4551 74.8982C32.8733 74.1674 34.1956 73.7872 34.2188 73.0994C34.2188 72.9969 34.5692 72.8646 34.7775 72.7886C34.9394 72.729 35.1312 72.7522 35.3064 72.7125C35.9378 72.567 35.9841 72.5935 36.0204 73.192C36.0436 73.5458 36.0568 73.5921 36.0469 73.6185C36.0469 73.6185 36.0469 73.6152 36.0535 73.6119C36.8965 73.02 37.4518 72.4381 38.1394 72.8811C38.7775 73.2912 38.8171 73.7045 38.2816 74.2931C37.9808 74.3096 37.6799 74.3261 37.237 74.3493C37.3923 74.713 37.4882 74.9213 37.5444 75.0503C37.7394 75.0007 37.9345 74.9478 38.1295 74.8982C38.1196 74.7957 38.1097 74.6866 38.0932 74.5212C38.3246 74.6899 38.394 74.7527 38.3444 74.842C42.4138 73.7905 46.4403 72.5108 50.437 71.089C50.3808 71.0559 50.3345 71.0162 50.3378 70.9964C50.4766 70.4343 50.6122 70.6459 50.999 70.7881C50.9295 70.8509 50.8766 70.9005 50.827 70.9501C55.2634 69.3629 59.67 67.6203 64.07 65.8513C68.7147 63.9864 73.3593 62.1049 78.027 60.3557C87.4122 56.8441 96.9097 53.9045 106.771 52.8761C106.725 53.0514 106.678 53.2266 106.622 53.4019L106.853 53.3391C105.296 70.7318 93.27 86.1341 75.6634 91.256C75.9213 91.3817 76.156 91.5271 76.3742 91.6892C82.7576 89.7449 88.4072 86.4812 93.0816 82.2455C93.032 82.2653 92.989 82.2322 92.8237 82.1661C93.0452 81.9214 92.9527 81.9677 93.3064 82.0305C101.409 74.5774 106.553 64.2674 107.492 53.1737L109.505 52.6447C109.802 52.6248 110.1 52.6017 110.397 52.5885C109.515 65.8281 103.012 78.0957 92.7246 86.2961H92.7213Z" fill="white"/>
    <path d="M84.543 40.2051C84.543 40.2051 84.5467 40.2089 84.5505 40.2126C84.5505 40.2126 84.5467 40.2088 84.543 40.2051Z" fill="white"/>
    <path d="M41.0088 82.0437C41.4287 82.3942 41.8287 82.619 42.1989 82.7083C42.5725 82.7976 42.9295 82.7877 43.27 82.6786C43.6105 82.5694 43.9344 82.381 44.2485 82.1197C44.5592 81.8552 44.8601 81.551 45.1477 81.2071L43.865 80.1325C43.5774 80.4763 43.3229 80.7343 43.108 80.9128C42.8898 81.0881 42.6948 81.2038 42.5295 81.26C42.3609 81.3162 42.2088 81.3228 42.0799 81.2799C41.9477 81.2369 41.8287 81.1674 41.7163 81.0715C41.5774 80.9558 41.4816 80.8268 41.4254 80.6847C41.3692 80.5425 41.3725 80.3606 41.4419 80.1391C41.508 79.9175 41.6535 79.6464 41.8683 79.319C42.0865 78.995 42.394 78.5916 42.7973 78.1121C43.1741 77.6591 43.5047 77.2888 43.789 76.9978C44.0733 76.7035 44.3245 76.4886 44.5493 76.3464C44.7708 76.2009 44.9658 76.1315 45.1444 76.1315C45.3196 76.1315 45.4882 76.2009 45.6501 76.3332C45.9411 76.5779 46.0535 76.8523 45.9873 77.1532C45.9212 77.4574 45.6931 77.841 45.3063 78.3039L46.589 79.3786C46.7807 79.1471 46.9725 78.8859 47.1642 78.5949C47.3526 78.3006 47.4749 77.9865 47.5378 77.6492C47.5973 77.3086 47.5609 76.9581 47.4187 76.5878C47.2799 76.2174 46.9824 75.8405 46.5229 75.4602C46.0435 75.0568 45.5906 74.8187 45.1708 74.7427C44.7477 74.6699 44.3411 74.7129 43.9477 74.8783C43.551 75.0436 43.1609 75.3081 42.7774 75.6785C42.3906 76.0488 41.9973 76.4753 41.5973 76.9548C41.1873 77.4409 40.8402 77.9071 40.546 78.3469C40.2518 78.79 40.0601 79.2198 39.9675 79.6365C39.8749 80.0531 39.908 80.4598 40.0601 80.8533C40.2154 81.2468 40.5361 81.6436 41.0187 82.047L41.0088 82.0437Z" fill="white"/>
    <path d="M46.6841 83.125C46.499 83.6243 46.4097 84.0839 46.4164 84.5137C46.423 84.9403 46.5453 85.3272 46.7899 85.6744C47.0312 86.0216 47.4312 86.3357 47.9932 86.6167C48.5552 86.8978 49.0445 87.0334 49.4676 87.0202C49.8907 87.0069 50.2742 86.8747 50.6213 86.6234C50.9684 86.372 51.2858 86.0249 51.5734 85.5818C51.861 85.1354 52.1486 84.6295 52.4329 84.064C52.7139 83.5019 52.9486 82.9728 53.1337 82.4736C53.3221 81.9743 53.4114 81.508 53.4048 81.0815C53.3982 80.6549 53.2759 80.2614 53.0411 79.9043C52.8031 79.5472 52.4064 79.2265 51.8445 78.9454C51.2858 78.661 50.7899 78.5354 50.3602 78.5552C49.9337 78.5784 49.5436 78.7172 49.1965 78.9685C48.8527 79.2198 48.5321 79.5703 48.2445 80.0167C47.9535 80.4631 47.6693 80.969 47.3883 81.5312C47.104 82.0999 46.8692 82.6323 46.6841 83.1283V83.125ZM47.9998 84.4939C48.0362 84.2393 48.1321 83.9318 48.2808 83.568C48.4329 83.2076 48.6312 82.7745 48.8825 82.2785C49.1337 81.7792 49.3585 81.3625 49.5569 81.0286C49.7519 80.6946 49.9469 80.4367 50.1288 80.2515C50.3106 80.0663 50.499 79.9572 50.6841 79.9242C50.8693 79.8911 51.0709 79.9308 51.2924 80.0432C51.5139 80.1523 51.6659 80.2945 51.7519 80.4631C51.8378 80.6318 51.861 80.8467 51.8213 81.1013C51.7816 81.3592 51.6891 81.67 51.5403 82.0272C51.3916 82.3876 51.1899 82.8141 50.942 83.3134C50.6907 83.8127 50.4659 84.2294 50.2676 84.5666C50.0659 84.9039 49.8742 85.1618 49.6924 85.3437C49.5106 85.5256 49.3254 85.6347 49.1403 85.6644C48.9552 85.6975 48.7502 85.6578 48.5321 85.5454C48.3106 85.433 48.1552 85.2941 48.0726 85.1255C47.9899 84.9568 47.9635 84.7452 47.9998 84.4906V84.4939Z" fill="white"/>
    <path d="M54.8062 89.1L56.4327 89.5034L58.0922 82.7778L59.8508 83.2109L60.1781 81.8817L55.0343 80.6119L54.707 81.9412L56.4657 82.3777L54.8062 89.1Z" fill="white"/>
    <path d="M62.2768 90.3069L63.9496 90.3631L64.1744 83.4424L65.9859 83.4986L66.0322 82.1296L60.7363 81.9577L60.6934 83.3266L62.5049 83.3862L62.2768 90.3069Z" fill="white"/>
    <path d="M72.7268 83.4292C72.5714 82.92 72.3598 82.4967 72.0987 82.1594C71.8342 81.8222 71.497 81.5841 71.0937 81.4452C70.6871 81.303 70.178 81.2931 69.5598 81.4088C68.9449 81.5246 68.4722 81.7197 68.1449 82.0007C67.821 82.2785 67.5929 82.6224 67.4706 83.0324C67.3483 83.4391 67.3053 83.9119 67.3483 84.4443C67.3912 84.9767 67.4673 85.552 67.583 86.1671C67.702 86.792 67.8375 87.3574 67.9929 87.8634C68.1483 88.3693 68.3565 88.7925 68.621 89.1265C68.8854 89.4638 69.2193 89.6952 69.6226 89.8242C70.0259 89.9531 70.535 89.9597 71.1499 89.844C71.7681 89.7283 72.2408 89.5365 72.5681 89.2687C72.8954 89.0008 73.1202 88.6635 73.2458 88.2535C73.3714 87.8468 73.4111 87.374 73.3714 86.8482C73.3317 86.3192 73.2557 85.7438 73.1367 85.1189C73.021 84.5038 72.8854 83.9384 72.7301 83.4259L72.7268 83.4292ZM71.7284 87.8038C71.6921 88.0584 71.6127 88.2535 71.4838 88.3924C71.3549 88.5313 71.1697 88.6239 70.9284 88.6702C70.6838 88.7165 70.4788 88.6966 70.3102 88.6139C70.1416 88.5313 69.9962 88.3792 69.8706 88.1543C69.7449 87.9295 69.6325 87.6286 69.5334 87.2483C69.4342 86.8681 69.3317 86.4051 69.2292 85.8562C69.1268 85.3073 69.0507 84.8444 69.0078 84.4575C68.9648 84.0707 68.9582 83.7499 68.9912 83.492C69.0243 83.2341 69.1036 83.0357 69.2325 82.8968C69.3615 82.7579 69.5466 82.6654 69.7912 82.6191C70.0359 82.5728 70.2408 82.5926 70.4094 82.6753C70.5813 82.7579 70.7235 82.9134 70.8524 83.1415C70.978 83.3697 71.0904 83.6739 71.1896 84.0475C71.2888 84.4245 71.3879 84.8874 71.4937 85.433C71.5962 85.9819 71.6689 86.4481 71.7152 86.8383C71.7615 87.2285 71.7648 87.5492 71.7317 87.8038H71.7284Z" fill="white"/>
    <path d="M78.2874 87.6087L75.8841 82.3181L75.9072 82.3082L80.1717 86.749L81.9072 85.962L78.4725 78.4097L77.0742 79.0446L79.4279 84.2161L79.4047 84.2261L75.2163 79.8911L73.4609 80.688L76.8923 88.2436L78.2874 87.6087Z" fill="white"/>
    <path d="M89.2764 80.4697L86.7773 77.8741L88.7839 75.9397L87.8318 74.951L85.8252 76.8887L84.4698 75.4834L86.5987 73.4267L85.65 72.438L82.3145 75.6586L88.0731 81.6304L89.2764 80.4697Z" fill="white"/>
    <path d="M95.8202 72.3884L94.6897 71.6146L92.9508 74.1574L91.1095 72.8976L92.683 70.5962L91.5525 69.8224L89.9789 72.1238L88.369 71.0227L90.0384 68.5758L88.9078 67.8021L86.293 71.6278L93.1392 76.3133L95.8202 72.3884Z" fill="white"/>
    <path d="M98.9556 65.4908L97.6862 64.9683L96.5126 67.812L94.4498 66.9622L95.5143 64.3831L94.2482 63.8606L93.1837 66.4365L91.3787 65.6925L92.5093 62.9546L91.2432 62.4289L89.4746 66.7142L97.1407 69.8853L98.9556 65.4908Z" fill="white"/>
    <path d="M100.569 58.2096L99.224 57.955L98.6785 60.8681L91.8719 59.5951L91.5645 61.2385L99.7198 62.7661L100.569 58.2096Z" fill="white"/>
    <path d="M39.8611 29.6339L42.5917 33.4133L42.5785 33.4266L38.5917 31.0127L37.2793 32.4412L42.0396 36.8225L42.8495 35.9429L39.0479 32.4445L39.0611 32.4313L43.6396 35.0832L44.3272 34.3359L41.3057 29.991L41.319 29.9778L45.1206 33.4762L45.9305 32.5966L41.1702 28.212L39.8611 29.6339Z" fill="white"/>
    <path d="M43.6654 26.2545L46.0919 32.4941L47.1894 31.6939L46.6241 30.4109L48.0158 29.3958L49.0638 30.325L50.1613 29.5248L44.9646 25.3022L43.6621 26.2545H43.6654ZM44.9877 26.6811L47.2059 28.665L46.1778 29.4123L44.9712 26.691L44.9877 26.6811Z" fill="white"/>
    <path d="M50.7445 23.1794L50.242 22.2337L46.5957 24.1813L47.1015 25.1237L48.3478 24.459L50.8899 29.2272L52.0403 28.6121L49.4982 23.844L50.7445 23.1794Z" fill="white"/>
    <path d="M54.505 26.3735L53.9198 24.7335L55.9694 24.0027L55.6058 22.9942L53.5595 23.7282L53.0471 22.2932L55.2256 21.5161L54.862 20.5076L51.457 21.7244L53.6355 27.8185L57.1265 26.5719L56.7661 25.5634L54.505 26.3735Z" fill="white"/>
    <path d="M61.5029 25.2691C61.4467 25.0972 61.3773 24.8393 61.3012 24.5053C61.2616 24.3334 61.2252 24.1813 61.1954 24.0424C61.1624 23.9035 61.1293 23.7779 61.0963 23.6588C60.9938 23.3083 60.8516 23.0669 60.6731 22.938C60.4946 22.8057 60.2401 22.7462 59.9095 22.7594V22.7429C60.2533 22.5974 60.488 22.3725 60.607 22.0683C60.7293 21.7641 60.7492 21.4004 60.6665 20.9738C60.5607 20.4216 60.3359 20.0381 59.9855 19.8264C59.6351 19.6148 59.1954 19.5553 58.6599 19.6578L56.293 20.1075L57.5029 26.4661L58.7822 26.2214L58.2731 23.5332L58.9607 23.4042C59.2285 23.3546 59.4302 23.3877 59.5723 23.51C59.7112 23.6324 59.8103 23.8142 59.8698 24.0622L60.1376 25.2757C60.1674 25.3981 60.2037 25.5171 60.2434 25.6296C60.2831 25.742 60.3426 25.8379 60.4252 25.9139L61.8136 25.6494L61.8037 25.5965C61.6715 25.5535 61.5723 25.4477 61.5029 25.2757V25.2691ZM59.3112 22.1841C59.1723 22.3626 58.9475 22.4784 58.6401 22.5379L58.1045 22.6404L57.7574 20.8052L58.3657 20.6895C58.9574 20.5771 59.3112 20.8151 59.4235 21.4037C59.4897 21.7476 59.4533 22.0088 59.3145 22.1841H59.3112Z" fill="white"/>
    <path d="M63.2777 19.1256L61.9746 19.2097L62.3912 25.6706L63.6943 25.5866L63.2777 19.1256Z" fill="white"/>
    <path d="M66.052 19.1122L63.9727 25.4774L65.3313 25.5568L65.7082 24.2077L67.4305 24.3069L67.652 25.6924L69.0074 25.7684L67.6685 19.2081L66.0586 19.1155L66.052 19.1122ZM65.9925 23.1496L66.7826 20.2794H66.8024L67.2619 23.2223L65.9958 23.1496H65.9925Z" fill="white"/>
    <path d="M71.8509 19.8066L70.5749 19.5322L69.2129 25.861L72.7501 26.6215L72.9749 25.5767L70.7137 25.0873L71.8509 19.8066Z" fill="white"/>
    <path d="M76.8307 75.8636C76.8307 75.8636 75.4125 75.4404 73.9878 75.9066C73.6671 76.0124 73.3729 76.1513 73.1084 76.3067C73.3035 76.0719 73.4886 75.8041 73.6406 75.5032C74.3216 74.164 74.1266 72.6992 74.1266 72.6992C74.1266 72.6992 72.8274 73.4035 72.1464 74.7394C71.9944 75.0403 71.8853 75.3478 71.8092 75.6454C71.7795 75.3412 71.7233 75.0204 71.6175 74.6997C71.1547 73.2712 69.9811 72.3718 69.9811 72.3718C69.9811 72.3718 69.558 73.7871 70.0241 75.2155C70.1299 75.5363 70.2687 75.8305 70.4241 76.0951C70.1894 75.9 69.9216 75.7148 69.6208 75.5627C68.282 74.8815 66.8175 75.0766 66.8175 75.0766C66.8175 75.0766 67.5216 76.3761 68.8572 77.0573C69.158 77.2094 69.4654 77.3185 69.763 77.3946C69.4588 77.4243 69.1382 77.4805 68.8175 77.5864C67.3894 78.0493 66.4902 79.2231 66.4902 79.2231C66.4902 79.2231 67.9051 79.6464 69.3332 79.1801C70.7613 78.7172 71.6605 77.5434 71.6605 77.5434C71.6605 77.5434 73.0754 77.9633 74.5035 77.5004C75.9316 77.0375 76.8307 75.8636 76.8307 75.8636Z" fill="white"/>
    <path d="M62.9593 74.8055C62.4105 75.4437 62.1956 76.3398 62.4766 77.1962C62.8998 78.5023 64.3047 79.2199 65.6105 78.7933C65.7229 78.7569 65.832 78.7106 65.9345 78.6577C64.8733 78.833 63.8155 78.2147 63.4717 77.1598C63.2237 76.396 63.4155 75.5991 63.9014 75.0337C63.6833 74.7824 63.5113 74.4848 63.4023 74.1475C62.9626 72.7951 63.7031 71.3468 65.0552 70.907C65.4518 70.7781 65.8585 70.7549 66.2419 70.8145C65.7857 69.2273 66.6618 67.5541 68.2452 67.0383C69.8287 66.5258 71.5213 67.3623 72.0833 68.9165C72.3609 68.642 72.7014 68.4238 73.0981 68.2948C74.4502 67.855 75.8981 68.5957 76.3378 69.9481C76.4469 70.2854 76.4833 70.626 76.4535 70.9566C77.1808 71.1286 77.8023 71.6609 78.0502 72.4248C78.394 73.4796 77.8981 74.6005 76.9361 75.0833C77.0518 75.0635 77.1642 75.037 77.2799 75.0006C78.5857 74.5774 79.3031 73.1721 78.8766 71.866C78.599 71.0095 77.8981 70.4077 77.0783 70.216C77.108 69.8423 77.0684 69.4587 76.9461 69.0818C76.4535 67.5607 74.8204 66.7275 73.2998 67.2235C72.8535 67.369 72.4667 67.6137 72.156 67.9245C71.5213 66.1786 69.6171 65.2329 67.8353 65.8115C66.0568 66.3902 65.0684 68.275 65.5808 70.0605C65.1477 69.9911 64.6915 70.0209 64.2452 70.1664C62.7246 70.659 61.8915 72.2925 62.3874 73.8136C62.5097 74.1905 62.7047 74.5278 62.9494 74.8088L62.9593 74.8055Z" fill="white"/>
  </g>
  <defs>
    <clipPath id="clip0_1074_2187">
      <rect width="126" height="99" fill="white"/>
    </clipPath>
  </defs>
</svg>