<svg width="193" height="41" viewBox="0 0 193 41" fill="none" xmlns="http://www.w3.org/2000/svg">
<g clip-path="url(#clip0_2563_2733)">
<path d="M-1.75806 29.8522V0.372406H35.163V29.8522L16.7024 40.8636L-1.75806 29.8522Z" fill="#BEFA23"/>
<path fill-rule="evenodd" clip-rule="evenodd" d="M19.0958 12.1437C19.2006 11.9179 19.0357 11.6596 18.7868 11.6596L7.05106 11.6596L9.26266 16.0852H16.6929C16.9241 16.0852 17.0774 16.3248 16.9806 16.5347C16.8838 16.7446 17.0371 16.9842 17.2682 16.9842H24.9346C25.3243 16.9842 25.6788 16.7587 25.844 16.4057L27.5452 12.7707C27.5764 12.7041 27.5278 12.6277 27.4543 12.6277H19.4048C19.1559 12.6277 18.991 12.3695 19.0958 12.1437Z" fill="#191C00"/>
<path fill-rule="evenodd" clip-rule="evenodd" d="M20.5826 5.78197C20.3337 5.78197 20.1688 5.52371 20.2736 5.29792C20.3783 5.07214 20.2135 4.81387 19.9646 4.81387H2.57978C2.5061 4.81387 2.45751 4.89058 2.48899 4.95719L16.7747 35.1855C16.811 35.2623 16.9203 35.2621 16.9564 35.1852L17.432 34.1721C17.7517 33.4911 17.7491 32.7026 17.425 32.0238L6.63714 9.42964H17.7067C17.9511 9.42964 18.1122 9.68407 18.0078 9.90505C17.9034 10.126 18.0646 10.3805 18.309 10.3805L28.0225 10.3805C28.4062 10.3805 28.7564 10.1618 28.9248 9.81705L30.8252 5.92645C30.8577 5.85975 30.8092 5.78197 30.7349 5.78197H20.5826Z" fill="#191C00"/>
<path fill-rule="evenodd" clip-rule="evenodd" d="M18.1338 18.7822C18.2327 18.5534 18.065 18.2982 17.8158 18.2982L10.0917 18.2982L12.3379 22.8275H15.6939C15.9336 22.8275 16.0897 23.0797 15.9826 23.2943C15.8755 23.5088 16.0316 23.761 16.2713 23.761H21.6901C22.0777 23.761 22.4307 23.5379 22.597 23.1878L24.392 19.4098C24.4236 19.3431 24.375 19.2663 24.3013 19.2663H18.4518C18.2025 19.2663 18.0348 19.011 18.1338 18.7822Z" fill="#191C00"/>
<path d="M59.2428 40.5946H39.8475V0.343582H59.0891V7.77376H47.2777V16.7412H57.4493V24.197H47.2777V33.1645H59.2428V40.5946Z" fill="#FFFDF3"/>
<path d="M90.6802 40.5946H83.2244V17.9198L76.7422 31.7553L70.2856 17.9198V40.5946H62.8554V0.343582H70.2856L76.7422 14.1791L83.2244 0.343582H90.6802V40.5946Z" fill="#FFFDF3"/>
<path d="M101.697 16.7412H109.332V7.77376H101.697V16.7412ZM101.697 33.1645H109.332V24.197H101.697V33.1645ZM116.788 36.3927L112.023 40.5946H94.2671V0.343582H112.023L116.788 4.5711V16.9462L113.919 20.4307L116.788 23.992V36.3927Z" fill="#FFFDF3"/>
<path d="M138.823 40.5946H120.401V0.343582H127.857V33.1645H138.823V40.5946Z" fill="#FFFDF3"/>
<path d="M161.83 40.5946H142.435V0.343582H161.677V7.77376H149.865V16.7412H160.037V24.197H149.865V33.1645H161.83V40.5946Z" fill="#FFFDF3"/>
<path d="M193.268 40.5946H185.812V17.9198L179.33 31.7553L172.873 17.9198V40.5946H165.443V0.343582H172.873L179.33 14.1791L185.812 0.343582H193.268V40.5946Z" fill="#FFFDF3"/>
</g>
<defs>
<clipPath id="clip0_2563_2733">
<rect width="193" height="40.0415" fill="white" transform="translate(0 0.5)"/>
</clipPath>
</defs>
</svg>
